<?xml version="1.0" standalone="no"?>
<!DOCTYPE svg PUBLIC "-//W3C//DTD SVG 1.1//EN" "http://www.w3.org/Graphics/SVG/1.1/DTD/svg11.dtd" >
<svg xmlns="http://www.w3.org/2000/svg">
<metadata>
Created by FontPrep 20130207 at Mon Jan  9 13:06:02 2017
 By deux
Copyright  2005, Joshua Darden &#38; Phil's Fonts, Inc. All rights reserved. Published by Garagefonts USA 301-260-2285 www.garagefonts.com
</metadata>
<defs>
<font id="6ad382c6614dc1acb715f8335b95168d" horiz-adv-x='1024' >
  <font-face 
    font-family="FreightBigBook"
    font-weight="400"
    font-stretch="normal"
    units-per-em="2048"
    panose-1="2 0 6 3 9 0 0 2 0 4"
    ascent="1638"
    descent="-410"
    x-height="864"
    cap-height="1280"
    bbox="-174 -571 2021 1749"
    underline-thickness="40"
    underline-position="-231"
    unicode-range="U+0020-FB02"
  />
<missing-glyph horiz-adv-x="1024" 
 />
    <glyph glyph-name=".notdef" horiz-adv-x="1024" 
 />
    <glyph glyph-name=".null" horiz-adv-x="0" 
 />
    <glyph glyph-name=".null" horiz-adv-x="0" 
 />
    <glyph glyph-name="nonmarkingreturn" horiz-adv-x="681" 
 />
    <glyph glyph-name="space" unicode=" " horiz-adv-x="266" 
 />
    <glyph glyph-name="exclam" unicode="!" horiz-adv-x="481" 
d="M244 -31q-47 0 -79 33t-32 74t32 70.5t79 29.5t75.5 -29.5t28.5 -70.5t-28.5 -74t-75.5 -33zM246 1311q86 0 86 -48.5t-2 -68.5l-76 -832q0 -6 -8 -6t-8 6l-82 832q-2 20 -2 68.5t88 48.5h4z" />
    <glyph glyph-name="quotedbl" unicode="&#x22;" horiz-adv-x="610" 
d="M268 1309l31 -15l-297 -469h-6zM528 1323h2l93 -43l-328 -455h-6z" />
    <glyph glyph-name="numbersign" unicode="#" horiz-adv-x="1011" 
d="M-31 395v17h289l119 452h-285v17h289l108 413h23l-109 -413h334l109 413h22l-108 -413h282v-17h-286l-119 -452h283v-17h-287l-107 -405h-22l106 405h-334l-106 -405h-23l107 405h-285zM614 412l119 452h-334l-118 -452h333z" />
    <glyph glyph-name="dollar" unicode="$" horiz-adv-x="911" 
d="M438 -6q137 0 225.5 80t88.5 206t-78 195.5t-215 118.5l-6 -25q-16 -68 -51.5 -194t-94.5 -361q61 -20 131 -20zM485 1288q-118 0 -193 -71.5t-75 -176.5t68 -164.5t198 -109.5l131 491q-64 31 -129 31zM460 -29q-79 0 -161 11l-84 -318h-20l84 320q-142 24 -222 53
l-20 297h14l82 -172q59 -96 156 -139l151 577q-173 58 -259.5 137.5t-86.5 219.5t108 245t277 105q74 0 144 -17l59 226h20l-59 -230q50 -12 88 -29l82 27l18 -311h-12l-135 241q-22 19 -51 35l-129 -489q181 -63 283 -152t102 -247q0 -157 -93.5 -240.5t-175 -116.5
t-160.5 -33z" />
    <glyph glyph-name="percent" unicode="%" horiz-adv-x="1083" 
d="M965 1311h24l-876 -1340h-25zM557 232q0 108 69.5 185t185.5 77t185.5 -77t69.5 -185t-68.5 -183.5t-186.5 -75.5t-186.5 75.5t-68.5 183.5zM811.5 -6q106.5 0 168.5 68.5t62 170.5t-64 171t-166 69t-166 -69.5t-64 -170.5q0 -102 61.5 -170.5t168 -68.5zM85 866.5
q-69 75.5 -69 183.5t70 184.5t185.5 76.5t185 -75.5t69.5 -185.5q0 -109 -68.5 -184t-186 -75t-186.5 75.5zM270.5 811q106.5 0 169 68.5t62.5 169.5t-63.5 171t-167 70t-167 -70t-63.5 -171q0 -100 61.5 -169t168 -69z" />
    <glyph glyph-name="ampersand" unicode="&#x26;" horiz-adv-x="1433" 
d="M969 442q202 258 202 321q0 34 -37.5 55.5t-140.5 31.5l-22 2l-6 12h495l-6 -12l-24 -2q-84 -8 -130.5 -42.5t-128.5 -137.5l-192 -246q112 -219 153.5 -270.5t74 -68.5t71.5 -17q96 0 176 104l14 -8q-75 -88 -113 -120t-79 -52.5t-112.5 -20.5t-143.5 72t-156 256
q-126 -156 -202 -216t-138.5 -86t-141.5 -26q-160 0 -264 108t-104 258q0 149 101.5 267.5t281.5 177.5q-188 100 -188 248q0 101 98 192t231 91q134 0 215 -70.5t81 -147.5t-59.5 -142.5t-192.5 -108.5q165 -91 260.5 -218.5t126.5 -183.5zM168 412q0 -141 87.5 -230.5
t210.5 -89.5q124 0 209 59.5t181 163.5q-72 152 -186.5 276t-253.5 183q-248 -132 -248 -362zM561 850q141 70 141 217q0 146 -68.5 186.5t-109.5 40.5q-79 0 -129.5 -60t-50.5 -143t51 -136.5t166 -104.5z" />
    <glyph glyph-name="quotesingle" unicode="'" horiz-adv-x="303" 
d="M268 1309l31 -15l-297 -469h-6z" />
    <glyph glyph-name="parenleft" unicode="(" horiz-adv-x="647" 
d="M106 378q0 185 52.5 340.5t132.5 275.5t173 204t175 127l10 -16q-80 -45 -172 -129t-220 -282t-128 -522t128 -522t220 -281t172 -128l-10 -16q-82 45 -175 130t-173 204.5t-132.5 274.5t-52.5 340z" />
    <glyph glyph-name="parenright" unicode=")" horiz-adv-x="647" 
d="M518 376q0 179 -51 330.5t-128 270.5t-169 203t-172 129l10 16q82 -43 175 -127t225.5 -283t132.5 -537t-132.5 -536t-225.5 -283t-175 -130l-10 16q80 45 172 128t169 202t128 270.5t51 330.5z" />
    <glyph glyph-name="asterisk" unicode="*" horiz-adv-x="620" 
d="M633 987q0 -2 -4 -2l-105 -63l-213 65q-4 2 -7 -3t1 -9l127 -182l-26 -117q-4 -4 -9 -2l-94 84l-6 215q0 4 -3 7t-5 -1l-125 -172l-125 -14q-6 0 -4 6l49 116l199 68q6 6 0 12l-199 76l-53 113q-2 6 4 6l129 -10l123 -181q2 -4 6 -2t4 7l12 223l92 78q6 6 7 0l30 -121
l-133 -183q-4 -4 -1 -9t7 -3l213 66l105 -66q4 0 4 -2z" />
    <glyph glyph-name="plus" unicode="+" horiz-adv-x="886" 
d="M432 475h-418l4 21h414v417h23v-417h413l4 -21h-415l-2 -426h-23v426z" />
    <glyph glyph-name="comma" unicode="," horiz-adv-x="331" 
d="M150 225q65 0 107 -42t42 -100q0 -97 -70.5 -181t-175.5 -123l-8 8q55 29 105.5 83t50.5 126t-47.5 100t-100.5 -6q-22 45 5 90t92 45z" />
    <glyph glyph-name="hyphen" unicode="-" horiz-adv-x="573" 
d="M43 520h494l-7 -61h-493z" />
    <glyph glyph-name="period" unicode="." horiz-adv-x="376" 
d="M190.5 -25q-47.5 0 -79 32t-31.5 74t31.5 73.5t79 31.5t77 -31.5t29.5 -73.5t-29.5 -74t-77 -32z" />
    <glyph glyph-name="slash" unicode="/" horiz-adv-x="509" 
d="M463 1290h20l-430 -1796h-20z" />
    <glyph glyph-name="zero" unicode="0" horiz-adv-x="1083" 
d="M883 846q139 -145 139 -364t-137 -362t-343 -143t-343.5 141.5t-137.5 359t139 365.5t341.5 148t341.5 -145zM542 -8q139 0 226.5 138t87.5 348q0 211 -88 352t-225 141q-138 0 -227 -138t-89 -323q0 -368 121 -443t194 -75z" />
    <glyph glyph-name="one" unicode="1" horiz-adv-x="659" 
d="M276 49v844l-213 29l7 10l344 49v-936q0 -12 19.5 -18.5t90.5 -10.5l62 -2l6 -14h-479l6 14l69 2q49 2 68.5 8.5t19.5 24.5z" />
    <glyph glyph-name="two" unicode="2" horiz-adv-x="870" 
d="M436 989q113 0 188.5 -71.5t75.5 -188.5t-111.5 -242t-391.5 -358v-2l493 -2q52 0 144 235l8 21l14 -2l-84 -379h-735l-6 16q333 271 433.5 393t100.5 237t-57.5 177t-149.5 62t-155.5 -44t-122.5 -149l-14 8q154 289 370 289z" />
    <glyph glyph-name="three" unicode="3" horiz-adv-x="804" 
d="M387 989q113 0 191.5 -74.5t78.5 -181.5q0 -147 -117.5 -230t-170.5 -116v-2q175 8 278 -93t103 -266t-147.5 -301.5t-362.5 -136.5q-119 0 -174.5 45t-55.5 91t25.5 73t75.5 27t84 -54.5t20 -129.5q51 -19 101 -19q119 0 213 92t94 240t-83 237t-227 89q-69 0 -172 -39
l-8 12q94 61 167 109.5t148.5 116.5t75.5 176t-59 168.5t-158 60.5q-177 0 -270 -187l-14 9q139 284 364 284z" />
    <glyph glyph-name="four" unicode="4" horiz-adv-x="950" 
d="M545 20h-527v7l629 942h33v-836l246 -2l-41 -111h-205v-397h-135v397zM545 133v641h-2l-426 -641h428z" />
    <glyph glyph-name="five" unicode="5" horiz-adv-x="772" 
d="M-51 -281q0 37 25.5 62.5t60.5 25.5q59 0 93 -53.5t38 -115.5q18 -4 40.5 -9.5t64.5 -5.5t97.5 26.5t126 102.5t70.5 231t-132.5 265t-352.5 143l147 567h498l-37 -141h-475l-76 -295q260 -43 404.5 -166t144.5 -301q0 -90 -40 -175t-151.5 -188.5t-328.5 -103.5
t-217 131z" />
    <glyph glyph-name="six" unicode="6" horiz-adv-x="978" 
d="M55 481q0 166 65.5 313.5t182.5 262t276.5 188.5t346.5 92l2 -14q-290 -47 -468 -241t-235 -457l2 -4q66 72 156 121t179 49q165 0 265.5 -106.5t100.5 -283.5q0 -176 -126 -300t-307 -124q-91 0 -175 38t-174.5 142.5t-90.5 323.5zM706.5 92q73.5 94 73.5 256t-82 266.5
t-209 104.5q-161 0 -266 -129q-14 -42 -14 -130q0 -193 80.5 -327.5t212.5 -134.5q131 0 204.5 94z" />
    <glyph glyph-name="seven" unicode="7" horiz-adv-x="837" 
d="M330 825q-135 0 -174 -24.5t-56.5 -56t-31.5 -85.5l-7 -18l-16 2l37 315h733l2 -8l-528 -1327h-119l582 1192l-2 10h-420z" />
    <glyph glyph-name="eight" unicode="8" horiz-adv-x="940" 
d="M176 68q-119 97 -119 241q0 111 88.5 199.5t233.5 126.5v4q-137 75 -206 145.5t-69 189.5q0 118 108.5 228.5t263.5 110.5t260.5 -94.5t105.5 -233.5q0 -86 -76 -160.5t-195 -119.5v-3q151 -76 207 -133t80.5 -110t24.5 -125t-33 -137.5t-121 -145.5t-261 -80t-292 97z
M764 252q0 176 -148.5 260t-218.5 115q-92 -41 -148 -124t-56 -205t82 -213t213 -91q130 0 203 73.5t73 184.5zM709 985q0 122 -71 214.5t-176 92.5t-171 -72t-66 -153t27 -131.5t86.5 -103.5t214.5 -121q156 100 156 274z" />
    <glyph glyph-name="nine" unicode="9" horiz-adv-x="978" 
d="M417 180q-164 0 -265 108.5t-101 287.5t126 301t311 122t309.5 -145t124.5 -362q0 -166 -65.5 -312.5t-182.5 -260.5t-276.5 -187.5t-346.5 -91.5l-2 14q292 50 469.5 243t233.5 453l-2 2q-66 -72 -155 -122t-178 -50zM770 520q0 188 -82 323.5t-212 135.5t-204.5 -95.5
t-74.5 -255.5t82 -266t226 -106t249 127q16 55 16 137z" />
    <glyph glyph-name="colon" unicode=":" horiz-adv-x="372" 
d="M190.5 -25q-47.5 0 -79 32t-31.5 73t31.5 71.5t79 30.5t77 -30.5t29.5 -71.5t-29.5 -73t-77 -32zM190.5 598q-47.5 0 -79 34t-31.5 75t31.5 71.5t79 30.5t77 -30.5t29.5 -71.5t-29.5 -75t-77 -34z" />
    <glyph glyph-name="semicolon" unicode=";" horiz-adv-x="331" 
d="M151 223q64 0 106 -42t42 -100q0 -97 -71 -179.5t-175 -120.5l-8 8q55 29 105.5 82t50.5 125t-47.5 100t-100.5 -6q-23 45 5.5 89t92.5 44zM174 598q-47 0 -79 33t-32 73.5t32 72.5t79 32t77 -32t30 -72.5t-30 -73.5t-77 -33z" />
    <glyph glyph-name="less" unicode="&#x3c;" horiz-adv-x="860" 
d="M10 471v23l815 401l11 -23l-793 -387v-4l793 -391l-11 -22z" />
    <glyph glyph-name="equal" unicode="=" horiz-adv-x="876" 
d="M37 313h803l6 -20h-815zM31 672h815l-6 -21h-803z" />
    <glyph glyph-name="greater" unicode="&#x3e;" horiz-adv-x="860" 
d="M25 90l792 391v4l-792 387l10 23l815 -401v-23l-815 -403z" />
    <glyph glyph-name="question" unicode="?" horiz-adv-x="612" 
d="M293 -29q-47 0 -78 33t-31 74t31 71.5t78 30.5t76.5 -30.5t29.5 -71.5t-29.5 -74t-76.5 -33zM195 543q0 -72 106 -178h-16q-100 85 -133 149t-33 96q0 70 38.5 107.5t132.5 80.5q156 70 200.5 100.5t44.5 68.5q0 82 -76 145.5t-238 63.5q-81 0 -149 -21q-20 27 -21 86
q0 70 149 70t254 -113.5t105 -265.5q0 -102 -35.5 -143.5t-115.5 -79.5q-142 -66 -177.5 -91t-35.5 -75z" />
    <glyph glyph-name="at" unicode="@" horiz-adv-x="1568" 
d="M840 304q0 85 49 181h-4q-115 -168 -198 -259t-156 -91t-121 50.5t-48 122t30 146t94.5 172.5t186.5 210t218 112q47 0 74.5 -49t25.5 -131h2l78 233l131 -8l-211 -542q-57 -150 -25.5 -208.5t138.5 -58.5q146 0 269.5 149t123.5 351q0 263 -183 437.5t-468 174.5
q-160 0 -301.5 -64.5t-245.5 -174t-165.5 -256t-61.5 -304.5q0 -306 201.5 -498t521.5 -192q212 0 397 111.5t264 278.5l19 -9q-83 -169 -268 -284t-412 -115q-332 0 -538 196.5t-206 503.5q0 170 62.5 321t171 262.5t253 177t298.5 65.5q303 0 492.5 -178.5t189.5 -452.5
q0 -222 -146.5 -391.5t-331.5 -169.5q-95 0 -147.5 48t-52.5 133zM590 227q63 0 149.5 99.5t171.5 257.5q54 112 54 138t-13.5 51.5t-48.5 62t-92 36.5t-98 -41q-89 -89 -150 -224.5t-61 -219.5t26.5 -122t61.5 -38z" />
    <glyph glyph-name="A" unicode="A" horiz-adv-x="1280" 
d="M750 582l-8 22q-7 23 -19 59.5t-27.5 84t-41.5 129.5t-79 229h-2l-188 -524h365zM545 1196q68 25 104 107h19l372 -1088q39 -120 63.5 -149t47.5 -38.5t59 -11.5l58 -4l6 -12h-537l6 12l66 4q61 4 83.5 36t0.5 104l-135 405h-381l-98 -276q-29 -84 -42.5 -134.5t-3 -78
t47 -38.5t106.5 -18l43 -4l6 -12h-444l6 12l33 4q47 6 77.5 19.5t66 65.5t136.5 331l254 707z" />
    <glyph glyph-name="B" unicode="B" horiz-adv-x="1150" 
d="M1004 1008q0 -236 -388 -293v-6q222 -12 340.5 -111t118.5 -250q0 -152 -137 -250t-395 -98h-494l6 12l74 8q98 7 98 33v1180q0 10 -19.5 16t-98.5 13l-52 6l-6 12h486q351 0 409 -107.5t58 -164.5zM580 25q157 7 237 97.5t80 231.5t-105 240.5t-272 99.5q-92 0 -129 -6
v-633l144 -37l43 7h2zM821 987q0 268 -323 268h-107v-540l101 2q166 4 247.5 79.5t81.5 190.5z" />
    <glyph glyph-name="C" unicode="C" horiz-adv-x="1374" 
d="M786 1313q170 0 342 -90l111 53l16 -377h-12l-170 311q-99 80 -313 80q-114 0 -214 -50t-205 -180t-105 -418t151.5 -469t389.5 -181t328.5 115.5t131.5 187.5l51 86h12l-73 -311l-70 -15q-108 -52 -222 -69t-169 -17q-316 0 -513.5 186t-197.5 480t200 486t531 192z" />
    <glyph glyph-name="D" unicode="D" horiz-adv-x="1333" 
d="M227 53v1180q0 10 -19.5 16t-98.5 13l-52 6l-6 12l504 6q345 4 536 -164.5t191 -459.5t-210 -476.5t-576 -185.5h-447l6 12l74 8q98 7 98 33zM958 1082q-148 180 -434 180h-133v-1203l154 -36q270 4 415.5 178t145.5 437q0 264 -148 444z" />
    <glyph glyph-name="E" unicode="E" horiz-adv-x="1181" 
d="M227 53v1180q0 10 -19.5 16t-98.5 13l-56 6l-6 12h946l39 -365h-10l-12 29q-63 173 -133.5 245.5t-221.5 72.5h-264v-582h166q144 8 180.5 30.5t55 54.5t32.5 81l11 28l12 -2l-41 -413l-12 2l-2 26q-8 106 -51.5 135t-198.5 33l-152 4v-630l297 -9q168 4 251 89t153 251
l12 29l12 -2l-84 -387h-987l6 12l74 8q102 8 102 33z" />
    <glyph glyph-name="F" unicode="F" horiz-adv-x="1112" 
d="M227 53v1180q0 10 -17 16t-97 13l-60 6l-6 12h957l40 -373l-12 -2l-10 27q-27 78 -54.5 139.5t-90.5 126t-236 64.5h-250v-594h146q143 8 180 30.5t55.5 54t32.5 81.5l10 26l12 -2l-41 -412l-12 3l-2 26q-8 106 -51.5 135t-198.5 33l-131 4v-598q0 -22 119 -29l100 -6
l6 -14h-571l6 12l82 8q94 7 94 33z" />
    <glyph glyph-name="G" unicode="G" horiz-adv-x="1404" 
d="M758 -29q-306 0 -504.5 181.5t-198.5 476.5t200.5 489.5t522.5 194.5q106 0 198.5 -28t147.5 -58l105 49l8 -373h-12l-156 307q-99 80 -297 80q-247 0 -391.5 -183t-144.5 -468t156.5 -465t385.5 -180q80 0 158 19.5t119 52.5v444q0 23 -125 29l-80 6l-6 12h547l-7 -12
l-73 -8q-99 -7 -99 -33v-412l115 12l2 -8q-356 -125 -571 -125z" />
    <glyph glyph-name="H" unicode="H" horiz-adv-x="1472" 
d="M227 53v1180q0 10 -19.5 16t-98.5 13l-52 6l-6 12h527l-7 -12l-82 -8q-98 -7 -98 -33v-565h690v571q0 10 -19.5 16t-98.5 13l-60 6l-6 12h526l-6 -12l-74 -8q-98 -7 -98 -33v-1180q0 -10 19.5 -16t99.5 -13l51 -6l6 -12h-526l6 12l82 8q98 7 98 33v588h-690v-594
q0 -10 19.5 -16t99.5 -13l59 -6l6 -12h-526l6 12l74 8q98 7 98 33z" />
    <glyph glyph-name="I" unicode="I" horiz-adv-x="659" 
d="M248 53v1180q0 10 -19.5 16t-99.5 13l-59 6l-7 12h535l-6 -12l-82 -8q-98 -7 -98 -33v-1180q0 -10 19.5 -16t98.5 -13l60 -6l6 -12h-535l7 12l82 8q98 7 98 33z" />
    <glyph glyph-name="J" unicode="J" horiz-adv-x="618" 
d="M21 -340q-69 0 -111.5 30t-42.5 78t29.5 78.5t72.5 30.5t67.5 -20.5t34 -49t1 -61.5t-36.5 -57q86 -10 139 82t53 282v1180q0 22 -118 29l-60 6l-6 12h535l-7 -12l-82 -8q-98 -7 -98 -33v-1207q0 -31 -31.5 -90t-84 -119.5t-119 -105.5t-135.5 -45z" />
    <glyph glyph-name="K" unicode="K" horiz-adv-x="1347" 
d="M227 53v1180q0 10 -17 16t-97 13l-56 6l-6 12h537l-6 -12l-93 -8q-98 -7 -98 -33v-684l336 340q123 125 187.5 197.5t78 111.5t-19.5 51t-103 19l-79 6l-5 12h500l-6 -12l-25 -2q-85 -9 -115 -23t-59.5 -38.5t-74.5 -67.5t-108.5 -109.5t-158.5 -163.5l-30 -30l399 -660
q69 -111 90 -128t41.5 -21.5t52.5 -8.5l47 -4l7 -12h-523l6 12l60 4q72 4 74 45t-45 125l-318 537l-209 -209v-467q0 -10 19.5 -16t99.5 -13l70 -6l6 -12h-537l6 12l78 8q94 7 94 33z" />
    <glyph glyph-name="L" unicode="L" horiz-adv-x="1110" 
d="M227 53v1180q0 10 -17 16t-97 13l-56 6l-6 12h567l-6 -12l-123 -8q-98 -7 -98 -33v-1198l242 -11q230 0 297 137.5t100 215.5l12 26h13l-80 -397h-926l6 12l78 8q94 7 94 33z" />
    <glyph glyph-name="M" unicode="M" horiz-adv-x="1669" 
d="M47 12l47 2q152 11 152 72l28 1147q-30 21 -131 31l-55 4l-6 12h358l406 -1059h2l424 1059h352l-6 -12l-102 -8q-91 -7 -91 -33l21 -1180q0 -10 19.5 -15t95.5 -14l59 -6l6 -12h-530l6 12l98 8q84 7 84 33l-22 1139h-2l-478 -1192h-14l-440 1139q-14 40 -37 69l-21 -1126
q0 -23 45 -43.5t154 -24.5l37 -2l6 -12h-471z" />
    <glyph glyph-name="N" unicode="N" horiz-adv-x="1400" 
d="M264 1147h-2l2 -1063q0 -52 170 -68l39 -4l6 -12h-430l6 12l41 4q146 13 146 72l4 1077q-23 25 -66 56.5t-125 44.5l-26 4l-6 12h344l804 -1026h3l-3 942q0 46 -170 66l-38 4l-7 12h430l-6 -12l-41 -4q-145 -13 -145 -70l-4 -1204h-14z" />
    <glyph glyph-name="O" unicode="O" horiz-adv-x="1464" 
d="M724 -29q-140 0 -263 49.5t-264.5 186.5t-141.5 430q0 133 55.5 254t148.5 215t216 149.5t263 55.5t264 -49.5t265.5 -188.5t141.5 -434q0 -133 -55.5 -254t-148.5 -213t-217 -146.5t-264 -54.5zM1229 632q0 292 -141.5 475t-362.5 183t-355 -176.5t-134 -470.5
t140 -471.5t363 -177.5q224 0 357 173t133 465z" />
    <glyph glyph-name="P" unicode="P" horiz-adv-x="1103" 
d="M592 621q-86 0 -201 14v-588q0 -22 119 -29l100 -6l6 -12h-596l7 12l102 8q98 7 98 33v1180q0 10 -19.5 16t-98.5 13l-80 6l-6 12h569q233 0 348 -80t115 -230t-99.5 -224t-188.5 -99.5t-175 -25.5zM569 643q147 0 229.5 80t82.5 227q0 236 -124 275t-220 37l-146 -2
v-594q76 -23 178 -23z" />
    <glyph glyph-name="Q" unicode="Q" horiz-adv-x="1464" 
d="M55 637q0 133 55.5 254t148.5 215t216 149.5t263 55.5t264 -49.5t265.5 -188.5t141.5 -434q0 -217 -143 -397t-353 -242q92 -222 227 -285t369 -37l4 -12q-99 -33 -263 -33q-396 0 -529 338q-287 4 -476.5 191.5t-189.5 474.5zM1229 631q0 290 -141 474.5t-363 184.5
t-355.5 -178t-133.5 -471t140 -470t363 -177q224 0 357 173.5t133 463.5z" />
    <glyph glyph-name="R" unicode="R" horiz-adv-x="1280" 
d="M227 53v1180q0 10 -19.5 16t-98.5 13l-80 6l-6 12h526q242 0 368.5 -84t126.5 -244q0 -113 -91 -202t-228 -117l299 -457q58 -88 104.5 -123t118.5 -39l27 -2l8 -12h-336l-14 27l-377 606q-71 7 -164 41v-627q0 -15 50.5 -21t68.5 -8l80 -6l6 -12h-576l7 12l102 8
q98 13 98 33zM575 659q135 0 215 78t80 220t-95 226.5t-281 76.5l-103 -5v-563q101 -33 184 -33z" />
    <glyph glyph-name="S" unicode="S" horiz-adv-x="991" 
d="M533 1309q103 0 237 -47l82 24l18 -313h-12l-135 246q-94 71 -205 71t-186.5 -67.5t-75.5 -173.5q0 -153 116.5 -207t187.5 -78q174 -60 271 -149.5t97 -246.5t-130.5 -277t-311.5 -120t-390 72l-20 291h12l43 -101q53 -129 140 -185t217 -56t216.5 85t86.5 213
t-84 200.5t-241 124.5t-217.5 106.5t-88 110t-27.5 127.5t26.5 134t77 110t122 77t174.5 29z" />
    <glyph glyph-name="T" unicode="T" horiz-adv-x="1294" 
d="M565 53v1209h-131q-158 -11 -235.5 -125.5t-106.5 -169.5l-14 -27h-15l84 340h1018l62 -340h-13l-12 27q-68 152 -145.5 220t-198.5 75h-129v-1215q0 -10 19.5 -16t99.5 -13l80 -6l6 -12h-576l7 12l102 8q98 7 98 33z" />
    <glyph glyph-name="U" unicode="U" horiz-adv-x="1363" 
d="M780 39q383 0 383 471l-2 688q0 46 -184 68l-39 4l-6 12h440l-6 -12l-41 -4q-141 -13 -141 -72l-2 -690q-2 -254 -111.5 -393.5t-363.5 -139.5t-372 108.5t-118 360.5v793q0 21 -119 31l-80 6l-6 12h576l-6 -12l-103 -8q-98 -7 -98 -35v-760q0 -223 96 -325.5t303 -102.5
z" />
    <glyph glyph-name="V" unicode="V" horiz-adv-x="1292" 
d="M227 1067q-25 63 -40 101t-37.5 66t-94.5 32l-59 4l-6 12h532l-6 -12l-72 -2q-68 -4 -89 -25.5t5 -95.5l361 -948h2l293 798q29 84 42 133.5t4 77t-45 38.5t-108 20l-43 4l-6 12h443l-7 -12l-32 -4q-45 -6 -74 -16.5t-63.5 -57.5t-118.5 -279l-346 -942h-15z" />
    <glyph glyph-name="W" unicode="W" horiz-adv-x="2025" 
d="M229 1067q-48 126 -76.5 159.5t-99.5 37.5l-59 4l-4 12h532l-6 -12l-65 -2q-63 -2 -87 -23.5t3 -95.5l350 -961h4l295 744l-51 137q-48 124 -78 158.5t-103 38.5l-57 4l-6 12h530l-6 -12l-63 -2q-68 -4 -88.5 -25.5t6.5 -93.5l352 -957h4l285 795q62 164 47.5 204
t-51.5 54t-109 21l-43 4l-6 12h442l-6 -12l-33 -4q-45 -6 -72.5 -17.5t-58.5 -57t-112 -276.5l-342 -942h-19l-350 934h-2l-369 -934h-20z" />
    <glyph glyph-name="X" unicode="X" horiz-adv-x="1298" 
d="M-10 12l37 2q97 8 143.5 46t85.5 89.5t96 133.5l228 335l-297 447q-37 55 -61.5 92t-53.5 70t-88 37l-57 4l-9 12h539l-4 -10l-80 -2q-72 0 -76 -36t62 -142l227 -349h2l182 273q97 153 87.5 187t-41 44t-85.5 17l-57 6l-6 12h483l-6 -12l-37 -2q-97 -4 -155 -53
t-160 -205l-193 -285q82 -125 117 -177t93 -142t124 -187q66 -98 83 -123.5t41.5 -50t80.5 -27.5l55 -4l6 -12h-534l6 12l78 2q70 2 81 30t-28 87l-307 467h-2q-18 -26 -33.5 -49t-35 -52t-54.5 -79t-90 -135t-76.5 -133t-16.5 -75.5t35.5 -38.5t83.5 -18l58 -6l6 -12h-483z
" />
    <glyph glyph-name="Y" unicode="Y" horiz-adv-x="1249" 
d="M543 53v522l-303 535q-50 90 -85.5 120t-99.5 34l-57 4l-6 12h540l-6 -12l-61 -2q-82 -4 -89 -34t38 -112l278 -493h4l193 364q82 161 77 199.5t-37 52.5t-91 21l-52 4l-6 12h451l-6 -12l-45 -4q-79 -4 -116.5 -39t-69 -86.5t-76.5 -139.5l-211 -395v-557q0 -10 19 -16
t99 -13l80 -6l6 -12h-575l6 12l102 8q99 7 99 33z" />
    <glyph glyph-name="Z" unicode="Z" horiz-adv-x="1165" 
d="M881 1262h-336q-249 0 -319 -127t-97 -199l-10 -25h-13l44 369h927v-8l-811 -1245v-4l365 -5q197 0 288.5 89.5t157.5 279.5l13 29h16l-66 -416h-972v6l813 1249v7z" />
    <glyph glyph-name="bracketleft" unicode="[" horiz-adv-x="626" 
d="M109 1280h499v-20h-477v-1745h477v-21h-499v1786z" />
    <glyph glyph-name="backslash" unicode="\" horiz-adv-x="475" 
d="M-12 1290h20l430 -1796h-20z" />
    <glyph glyph-name="bracketright" unicode="]" horiz-adv-x="626" 
d="M18 -485h478v1745h-478v20h500v-1786h-500v21z" />
    <glyph glyph-name="asciicircum" unicode="^" 
d="M377 1366h4l274 -383h-8l-266 229h-4l-266 -229h-9z" />
    <glyph glyph-name="underscore" unicode="_" horiz-adv-x="913" 
d="M45 2h823l6 -59h-835z" />
    <glyph glyph-name="grave" unicode="`" 
d="M80 1389h162l223 -383h-8z" />
    <glyph glyph-name="a" unicode="a" horiz-adv-x="813" 
d="M250 -18q-82 0 -138.5 56t-56.5 120t44 153t438 185l2 90q7 139 -50 200.5t-147 61.5t-131 -33t-41 -41t8 -16t25.5 -33t17.5 -55q0 -31 -23.5 -55.5t-63.5 -24.5t-64.5 21.5t-24.5 59.5q0 74 135.5 149t262.5 75t187 -63.5t52 -235.5l-20 -442q-7 -93 69 -93q37 0 90 56
l10 -6q-14 -16 -58 -73.5t-121 -57.5q-54 0 -90 38.5t-40 104.5v2q-59 -55 -124.5 -99t-147.5 -44zM340 66q100 0 184 84l13 325q-290 -72 -313 -146.5t-23 -128.5t40 -94t99 -40z" />
    <glyph glyph-name="b" unicode="b" horiz-adv-x="962" 
d="M240 702q161 181 309 181q167 0 271 -119t104 -320t-103.5 -303t-183.5 -135t-158 -33q-149 0 -274 72h-2l-97 -84h-12v1219q0 59 -15.5 82.5t-68.5 31.5l-47 9l2 10l271 67v-673zM488 -2q133 0 203.5 115.5t70.5 287.5t-80.5 282t-208.5 110q-76 0 -133 -36t-104 -85
v-486q35 -78 106.5 -133t145.5 -55z" />
    <glyph glyph-name="c" unicode="c" horiz-adv-x="825" 
d="M809 233q-146 -260 -341 -260t-312 127.5t-117 320.5t127.5 333.5t327.5 140.5q126 0 210 -52t84 -136q0 -41 -28.5 -70t-66.5 -29t-63.5 25.5t-25.5 67.5t20.5 62.5t20.5 32.5q0 26 -48.5 54.5t-104.5 28.5q-55 0 -110.5 -30t-121 -114.5t-65.5 -259.5t92 -287t229 -112
q94 0 156.5 35.5t120.5 128.5z" />
    <glyph glyph-name="d" unicode="d" horiz-adv-x="987" 
d="M721 154q-157 -181 -307 -181q-164 0 -269.5 120t-105.5 323t137.5 335t341.5 132q106 0 205 -54h2v351q0 59 -14.5 83.5t-67.5 30.5l-68 9l3 10l290 67v-1267q0 -35 9.5 -48.5t42.5 -17.5l79 -12l-2 -10l-270 -58l-2 185zM476 860q-134 0 -204.5 -115t-70.5 -285
q0 -169 79.5 -281.5t206.5 -112.5t238 120v488q-35 78 -106 132t-143 54z" />
    <glyph glyph-name="e" unicode="e" horiz-adv-x="845" 
d="M815 233q-149 -260 -349 -260q-192 0 -309.5 127.5t-117.5 321.5q0 193 121 333t311 140q154 0 239 -81t85 -200q0 -8 -4 -28l-588 2q-8 -46 -8 -124q0 -168 92.5 -278t228.5 -110q94 0 159.5 35.5t125.5 128.5zM459 874q-83 0 -155.5 -78t-96.5 -190l428 4
q0 180 -65.5 222t-110.5 42z" />
    <glyph glyph-name="f" unicode="f" horiz-adv-x="565" 
d="M170 43v748l-150 2l29 71h119l4 54q19 214 130 326t247 112q66 0 96.5 -28t30.5 -62t-25.5 -58t-64.5 -24q-85 0 -119 127l-27 4q-78 -29 -102.5 -122t-24.5 -235v-94h224l-29 -73h-195v-750q0 -12 14.5 -18.5t82.5 -8.5l67 -2l6 -12h-440l6 12l35 2q47 4 66.5 7.5
t19.5 21.5z" />
    <glyph glyph-name="g" unicode="g" horiz-adv-x="909" 
d="M866 -100q0 -183 -147 -295.5t-371 -112.5q-154 0 -243 58.5t-89 151.5t77 161t171 102v4q-104 10 -165.5 46.5t-61.5 88.5q0 83 71.5 142.5t163.5 75.5v4q-78 25 -133 96t-55 149q0 142 97.5 231t231.5 89t232 -76l240 45l-17 -88l-192 19l-2 -7q86 -81 86 -197
t-100 -202t-246 -86q-59 0 -115 14q-59 -10 -97 -41.5t-38 -77.5t41 -65.5t131 -19.5l229 6q143 0 222 -59.5t79 -155.5zM778 -209q0 174 -262 182h-52q-53 0 -103 -5t-72 -7q-56 -21 -108 -81.5t-52 -129.5q0 -96 87 -158.5t226 -62.5t237.5 77t98.5 185zM419 315
q83 0 139 72t56 197t-46 207.5t-137 82.5t-144.5 -74.5t-53.5 -201.5t51.5 -205t134.5 -78z" />
    <glyph glyph-name="h" unicode="h" horiz-adv-x="985" 
d="M279 41q0 -12 17 -17.5t87 -9.5l29 -2l6 -12h-408l6 12l35 2q47 4 65.5 8.5t18.5 22.5v1133q0 61 -14.5 83.5t-67.5 32.5l-47 9l2 8l271 67v-665l2 -4q31 25 120.5 104.5t227.5 79.5q93 -1 155 -63t62 -191v-596q0 -24 102 -29l29 -2l6 -12h-410l7 12l36 2q86 6 86 31
v565q0 180 -178 181q-133 0 -245 -107v-643z" />
    <glyph glyph-name="i" unicode="i" horiz-adv-x="446" 
d="M156 45v596q0 97 -16.5 124.5t-67.5 35.5l-47 8l2 8l272 72v-848q0 -12 17.5 -17.5t84.5 -9.5l29 -2l6 -12h-409l6 12l37 2q47 4 66.5 8.5t19.5 22.5zM209 1075q-53 0 -78 35t-25 65.5t25 66.5t78 36t76.5 -36t23.5 -66.5t-23.5 -65.5t-76.5 -35z" />
    <glyph glyph-name="j" unicode="j" horiz-adv-x="417" 
d="M143 -193v834q0 96 -15.5 124t-68.5 36l-47 8l2 8l273 72v-946q0 -167 -101.5 -310t-225.5 -143q-66 0 -100 29.5t-34 69.5t26.5 62.5t66.5 22.5t74 -36.5t48 -100.5q102 22 102 270zM196.5 1075q-53.5 0 -78 35t-24.5 65.5t24.5 66.5t78 36t77 -36t23.5 -66.5
t-23.5 -65.5t-77 -35z" />
    <glyph glyph-name="k" unicode="k" horiz-adv-x="935" 
d="M135 45v1133q0 61 -14.5 84.5t-67.5 31.5l-47 9l2 8l271 67v-981l202 199q146 146 146 196t-109 58l-26 2l-5 12h387l-6 -12l-43 -4q-59 -3 -109 -45.5t-92 -86.5t-104 -106l-20 -20q-4 -4 -6 -7t-13 -14l256 -422q55 -86 79.5 -105.5t86.5 -27.5l23 -2l6 -12h-285
l-10 25l-262 440l-96 -92v-332q0 -12 17 -17.5t85 -9.5l29 -2l6 -12h-406l6 12l35 2q47 4 65.5 8.5t18.5 22.5z" />
    <glyph glyph-name="l" unicode="l" horiz-adv-x="436" 
d="M145 45v1088q0 95 -12 117t-28.5 30t-43.5 14l-45 9l2 8l271 67v-1337q0 -12 16.5 -17.5t85.5 -9.5l29 -2l6 -12h-406l5 12l34 2q47 4 66.5 8.5t19.5 22.5z" />
    <glyph glyph-name="m" unicode="m" horiz-adv-x="1503" 
d="M507 791q-101 0 -208 -97v-653q0 -12 17.5 -17.5t84.5 -9.5l29 -2l6 -12h-409l6 12l37 2q47 4 66.5 8.5t19.5 22.5v594q0 95 -16 124.5t-68 37.5l-47 8l2 8l274 72l-8 -172l4 -2q84 84 153 131t163.5 47t156.5 -62q46 -51 53 -118l2 -2q118 127 191.5 154.5t149.5 27
t138 -62.5t62 -197v-590q0 -11 18 -16.5t84 -12.5l27 -2l6 -12h-407l6 12l37 2q84 6 84 31v565q0 92 -40 136.5t-136 44.5t-147 -40.5t-67 -72.5v-635q0 -14 32 -19.5t71 -9.5l29 -2l6 -12h-406l6 12l37 2q82 6 82 31v565q0 92 -40 136.5t-141 44.5z" />
    <glyph glyph-name="n" unicode="n" horiz-adv-x="1005" 
d="M299 41q0 -12 17.5 -17.5t84.5 -9.5l29 -2l6 -12h-409l6 12l37 2q47 4 66.5 8.5t19.5 22.5v594q0 95 -16 124.5t-68 37.5l-47 8l2 8l274 72l-6 -176l6 -4q103 89 179 136.5t171 47.5q94 1 155 -61t60 -195v-594q0 -11 18 -16.5t85 -12.5l28 -2l7 -12h-408l6 12l37 2
q84 6 84 31v565q0 180 -180 181q-132 0 -244 -107v-643z" />
    <glyph glyph-name="o" unicode="o" horiz-adv-x="993" 
d="M39 381.5q0 144.5 35 229.5t96 147.5t145 99.5t230.5 37t277.5 -131t131 -327t-131.5 -330t-325.5 -134q-197 0 -327.5 132t-130.5 276.5zM500 -10q126 0 204 127.5t78 302.5q0 269 -112 383q-81 76 -161 76q-142 0 -221 -124.5t-79 -274.5q0 -302 117 -419
q72 -71 174 -71z" />
    <glyph glyph-name="p" unicode="p" horiz-adv-x="991" 
d="M270 702q154 181 308 181q167 0 270.5 -118.5t103.5 -320.5t-137 -336.5t-286.5 -134.5t-260.5 54h-2v-506q0 -22 103 -25l69 -2l6 -12h-450l6 12l37 2q47 4 66.5 8t19.5 21v1116q0 97 -16.5 124.5t-67.5 35.5l-47 8l2 8l274 72l-2 -182zM518 -2q132 0 202.5 115.5
t70.5 286.5t-79 282t-207 111t-239 -121v-494q35 -72 106.5 -126t145.5 -54z" />
    <glyph glyph-name="q" unicode="q" horiz-adv-x="978" 
d="M721 154q-157 -181 -307 -181q-164 0 -269.5 120t-105.5 323t138 335t303 132t282 -76h2l92 98h12v-1380q0 -16 19.5 -20.5t66.5 -8.5l37 -2l6 -12h-448l6 12l68 2q70 2 86 8.5t16 16.5v631zM476 860q-135 0 -205 -114t-70 -283t80 -283t207 -114t237 120v482
q-35 80 -106 136t-143 56z" />
    <glyph glyph-name="r" unicode="r" horiz-adv-x="708" 
d="M692 790q0 -39 -25.5 -71.5t-68.5 -32.5t-74.5 29.5t-36.5 95.5q-66 -14 -105.5 -88t-82.5 -231v-451q0 -12 14.5 -18.5t81.5 -8.5l66 -2l6 -12h-440l6 12l37 2q47 4 66.5 8.5t19.5 22.5v594q0 95 -16 124.5t-68 37.5l-47 8l2 8l274 72l-6 -340h2q88 344 274 344
q53 0 87 -32t34 -71z" />
    <glyph glyph-name="s" unicode="s" horiz-adv-x="710" 
d="M349 -8q83 0 137.5 51t54.5 132t-59.5 130t-135.5 73q-134 43 -202 102t-68 164t82.5 177t193.5 72q110 0 191 -37l65 23l10 -228l-12 -2l-104 168q-73 57 -149 57q-77 0 -121 -43t-44 -98t14.5 -83.5t51 -57t114.5 -56.5t186 -73.5t108 -210.5q0 -117 -94 -198t-236 -81
t-264 47l-23 242l12 2l43 -92q86 -180 249 -180z" />
    <glyph glyph-name="t" unicode="t" horiz-adv-x="628" 
d="M352 -27q-132 0 -161 71t-29 128l12 619l-160 2l15 43l118 38l115 177l60 -2l-3 -183h293l-28 -71h-265l-14 -607q-2 -66 35 -98.5t96.5 -32.5t100.5 26t75 54l11 -6q-61 -61 -126 -109.5t-145 -48.5z" />
    <glyph glyph-name="u" unicode="u" horiz-adv-x="954" 
d="M457 76q126 0 233 98v574q0 63 -19.5 81.5t-82.5 22.5l-29 2l-6 12h283v-739q0 -35 9 -48t42 -18l80 -12l-2 -10l-273 -72l4 187h-2q-132 -123 -209 -152t-133 -29q-100 0 -160 61t-61 195v596q0 12 -17.5 17.5t-86.5 9.5l-29 2l-6 12h282v-610q0 -180 183 -180z" />
    <glyph glyph-name="v" unicode="v" horiz-adv-x="931" 
d="M147 723q-33 84 -49.5 103.5t-64.5 23.5l-39 2l-6 12h415l-4 -12l-34 -2q-59 -4 -69.5 -26.5t11.5 -80.5l225 -555l166 430q56 142 45.5 175.5t-39 43t-79.5 13.5l-29 2l-6 12h342l-6 -12l-21 -2q-68 -4 -98 -46.5t-94 -207.5l-240 -616h-20z" />
    <glyph glyph-name="w" unicode="w" horiz-adv-x="1449" 
d="M156 700q-36 99 -52 118.5t-32.5 24.5t-40.5 7l-37 2l-4 12h420l-7 -12l-32 -2q-61 -4 -75.5 -22.5t7.5 -75.5l217 -568l193 451l-39 98q-26 69 -45 88t-35 23t-43 6l-33 2l-8 12h416l-4 -12l-35 -2q-59 -4 -69.5 -24.5t9.5 -73.5l242 -572l150 428q50 145 38 179
t-39.5 46.5t-80.5 16.5l-27 2l-6 12h340l-6 -12q-59 -6 -79 -15.5t-43.5 -45.5t-80.5 -201l-213 -610h-23l-274 632l-268 -632h-23z" />
    <glyph glyph-name="x" unicode="x" horiz-adv-x="907" 
d="M6 12l49 6q47 6 90 40t109 128l141 207l-227 336q-43 61 -70.5 89t-68.5 32l-27 2l-6 12h412l-7 -12l-43 -4q-47 -4 -52 -30.5t30 -80.5l153 -223h3l126 195q45 68 40 101.5t-64 37.5l-49 4l-6 12h338l-7 -12l-47 -4q-47 -4 -91 -40t-109 -134l-121 -176l250 -363
q41 -59 68.5 -88t68.5 -33l29 -2l6 -12h-414l6 12l39 4q94 10 20 113l-169 250h-3l-145 -225q-43 -66 -41 -100t57 -38l58 -4l6 -12h-338z" />
    <glyph glyph-name="y" unicode="y" horiz-adv-x="917" 
d="M164 -524q-49 0 -83 26.5t-34 65.5t26.5 66.5t68.5 27.5t69 -28.5t35 -69.5q55 10 88 71.5t74 182.5l55 168l-2 2l-314 735q-33 85 -51 104t-65 23l-39 2l-6 12h415l-4 -12l-35 -2q-59 -4 -68 -26.5t13 -80.5l232 -555l159 435q50 144 38.5 174t-40 39.5t-80.5 13.5
l-28 2l-6 12h346l-6 -12l-27 -2q-35 -2 -56.5 -11.5t-40 -36t-37 -75.5t-48.5 -129l-228 -606l-67 -211q-47 -154 -104.5 -229.5t-149.5 -75.5z" />
    <glyph glyph-name="z" unicode="z" horiz-adv-x="837" 
d="M516 848h-98q-132 0 -191 -53t-110 -185l-19 -41h-10l6 295h668v-10l-555 -834l190 -4q183 0 252.5 90.5t100.5 143.5l28 47h8l-67 -297h-680v10l551 836q-39 2 -74 2z" />
    <glyph glyph-name="braceleft" unicode="{" horiz-adv-x="595" 
d="M367 139q0 -82 -27 -185.5t-39 -156.5t-12 -106q0 -98 63.5 -151.5t225.5 -74.5l-5 -12q-171 8 -285 89.5t-114 219.5q0 93 25.5 193t37 152.5t11.5 100.5q0 87 -71.5 123.5t-225.5 49.5l-4 8l4 8q137 14 192.5 40t80 56.5t24.5 79.5q0 61 -37 207.5t-37 227.5
q0 145 112 227t287 90l5 -12q-162 -20 -225.5 -72.5t-63.5 -135.5t26.5 -184.5t39 -160t12.5 -119.5q0 -200 -334 -250v-2q334 -49 334 -250z" />
    <glyph glyph-name="bar" unicode="|" horiz-adv-x="313" 
d="M147 1290h19v-1796h-19v1796z" />
    <glyph glyph-name="braceright" unicode="}" horiz-adv-x="595" 
d="M199 641q0 86 26.5 187.5t38.5 154.5t12 105q0 102 -65.5 154t-222.5 71l4 12q175 -8 287 -90t112 -217q0 -98 -25.5 -195.5t-37 -148t-11.5 -100.5q0 -86 80.5 -124.5t216.5 -52.5l4 -8l-4 -8q-154 -13 -206 -39.5t-71.5 -56t-19.5 -77.5q0 -66 37 -206t37 -225
q0 -153 -114 -234.5t-285 -89.5l-4 12q232 28 260 102.5t28 125.5q0 65 -38.5 212.5t-38.5 242.5t89 157t244 84v2q-333 49 -333 250z" />
    <glyph glyph-name="asciitilde" unicode="~" 
d="M90 324q19 200 126 200q72 0 189.5 -60.5t155.5 -60.5q39 0 65.5 19.5t32.5 85.5h11q-18 -201 -126 -201q-52 0 -98.5 19.5t-92.5 42t-86.5 42t-74.5 19.5t-60 -17.5t-32 -88.5h-10z" />
    <glyph glyph-name="nonbreakingspace" unicode="&#xa0;" horiz-adv-x="327" 
 />
    <glyph glyph-name="exclamdown" unicode="&#xa1;" horiz-adv-x="481" 
d="M238 -43q-82 0 -82 48t2 69l73 831q0 6 8.5 6t8.5 -6l74 -831q2 -20 2 -41t-13.5 -48.5t-68.5 -27.5h-4zM240 1087q-47 0 -77 31t-30 72t30 73.5t77 32.5t77.5 -32.5t30.5 -73.5t-30.5 -72t-77.5 -31z" />
    <glyph glyph-name="cent" unicode="&#xa2;" horiz-adv-x="831" 
d="M444 -27q-21 0 -51 4l-80 -299h-20l41 152q41 146 41 152q-146 24 -241 147t-95 285q0 200 127.5 340.5t327.5 140.5q63 0 122 -16l97 358h20l-98 -363q66 -20 104.5 -57t38.5 -82t-28.5 -70.5t-64.5 -25.5t-60.5 24.5t-28.5 65.5l-172 -639q54 -14 120 -14
q147 0 249 164l16 -7q-68 -121 -154 -190.5t-211 -69.5zM500 879q-128 0 -216.5 -114.5t-88.5 -271.5t59 -256.5t152 -140.5l202 750q-44 33 -108 33z" />
    <glyph glyph-name="sterling" unicode="&#xa3;" horiz-adv-x="1060" 
d="M319 801q0 83 34 175.5t133.5 205t306.5 112.5q98 0 157.5 -37.5t59.5 -105.5q0 -33 -27 -61.5t-63 -28.5q-64 0 -81 57.5t17 106.5q-52 39 -113 39q-120 0 -200 -84t-80 -228q0 -86 15.5 -166.5t25.5 -169.5h262l6 -20h-264q8 -66 8 -131q0 -135 -88 -285
q86 -27 173 -53.5t153 -26.5t138.5 23t94.5 233h17q-4 -168 -86.5 -273.5t-190.5 -105.5t-176 30t-105.5 52.5t-72.5 42.5q-107 -125 -217 -125q-61 0 -98.5 31t-37.5 85t47.5 92t135.5 38t192 -33q23 51 23 116t-24.5 136.5t-47.5 153.5h-223l6 20h211q-21 102 -21 185z
M174 184q-135 0 -135 -96q0 -45 32.5 -69.5t84.5 -24.5t104.5 34t91.5 87q-111 69 -178 69z" />
    <glyph glyph-name="currency" unicode="&#xa4;" horiz-adv-x="978" 
d="M655 70q197 0 303 188l15 -10q-68 -121 -158 -199t-223 -78q-171 0 -302 133t-163 353h-129l6 20h119q-6 68 -6 128t8 118h-127l6 20h125q39 247 192.5 402t348.5 155q125 0 200.5 -46t75.5 -121q0 -39 -28.5 -66t-66.5 -27t-59.5 19.5t-32 67.5t33.5 81q-12 23 -45 47.5
t-99 24.5t-131 -41t-144.5 -153.5t-101.5 -342.5h408l6 -20h-416l-2 -80q0 -80 13 -166h399l6 -20h-399q31 -172 132.5 -279.5t235.5 -107.5z" />
    <glyph glyph-name="yen" unicode="&#xa5;" horiz-adv-x="1218" 
d="M532 53v285h-387l7 20h380v246h-380l-7 21h377l-282 487q-54 89 -87 118.5t-98 33.5l-57 4l-6 12h540l-6 -12l-61 -2q-82 -4 -90 -34t39 -112l274 -475h4l189 361q81 153 71 190t-42.5 49t-92.5 19l-51 4l-6 12h450l-6 -12l-45 -4q-81 -4 -125.5 -47t-126.5 -203
l-207 -389h371l-6 -21h-369v-246h369l6 -20h-375v-291q0 -10 19.5 -16t99.5 -13l80 -6l6 -12h-575l6 12l102 8q98 7 98 33z" />
    <glyph glyph-name="section" unicode="&#xa7;" horiz-adv-x="790" 
d="M770 569q0 -141 -186 -243q61 -68 61 -161t-84 -173t-203 -80t-188.5 42t-69.5 101q0 29 19.5 55.5t52.5 26.5q61 0 77 -53.5t-20 -95.5q48 -60 136 -60t138 58.5t50 112.5q0 53 -33.5 104.5t-220.5 146.5q-138 78 -207 144.5t-69 157.5q0 157 186 243q-61 69 -61 135
q-1 122 80.5 201.5t200.5 79.5q118 0 177.5 -42t59.5 -102q0 -29 -24 -55.5t-56 -26.5q-58 0 -74 52.5t18 97.5q-23 29 -47 44t-68 15q-85 0 -131 -58t-46 -111q0 -54 20.5 -85.5t55 -59.5t80.5 -53.5l138 -76.5t165 -117.5t73 -163.5zM678 492q0 83 -55 135t-149 105
q-93 52 -152.5 84t-100.5 71q-41 -23 -74.5 -65t-33.5 -89q0 -83 58.5 -138.5t207.5 -137.5t194 -121q41 25 73 66.5t32 89.5z" />
    <glyph glyph-name="dieresis" unicode="&#xa8;" 
d="M215 1042q-49 0 -71.5 33t-22.5 53t5 38t17.5 33t29.5 25.5t50 10.5t59.5 -31.5t26.5 -63.5t-22.5 -65t-71.5 -33zM543 1042q-49 0 -71.5 33t-22.5 53t5 38t17 33t29.5 25.5t50.5 10.5t59.5 -31.5t26.5 -63.5t-22.5 -65t-71.5 -33z" />
    <glyph glyph-name="copyright" unicode="&#xa9;" horiz-adv-x="1441" 
d="M721 -29q-139 0 -261 52.5t-213 143.5t-143.5 213t-52.5 261t52.5 261t143.5 213t213 144.5t261 53.5t261 -53.5t213 -144.5t143.5 -213t52.5 -261t-52.5 -261t-143.5 -213t-213 -143.5t-261 -52.5zM721 -10q135 0 253 51t206 140t139 207t51 253t-51 254t-139 208
t-206 140t-253 51t-253 -51t-206 -140t-139 -208t-51 -254t51 -253t139 -207t206 -140t253 -51zM759 1040q112 0 197 -53l68 31l10 -225h-6l-104 182q-74 53 -166 53q-161 0 -248.5 -107.5t-87.5 -279.5t93 -283.5t233 -111.5q106 0 165.5 49t110.5 139l31 51h6l-45 -194
l-41 -10q-96 -48 -212 -48t-195 30t-135 82t-88 127t-32 163t31 161.5t88 128t136 85t191 30.5z" />
    <glyph glyph-name="ordfeminine" unicode="&#xaa;" horiz-adv-x="628" 
d="M188 586q-70 0 -111.5 44t-41.5 90q0 178 381 269l2 68q4 110 -43.5 155t-108.5 45t-95 -19.5t-34 -31.5t18.5 -35.5t18.5 -48t-20.5 -44t-51 -19.5t-50 18.5t-19.5 47t30.5 60.5t105.5 73.5t168 41.5t148.5 -47t51.5 -163l-15 -357q-2 -78 51 -78q36 0 74 47l8 -4
q-10 -14 -24.5 -34.5t-45.5 -49t-75 -28.5q-43 0 -70.5 31.5t-31.5 95.5v2q-112 -129 -220 -129zM260 657q74 0 148 74l8 240q-221 -50 -240.5 -112t-19.5 -101t29.5 -70t74.5 -31z" />
    <glyph glyph-name="guillemotleft" unicode="&#xab;" horiz-adv-x="823" 
d="M375 449v12l413 350l7 -6l-263 -350l263 -351l-7 -6zM23 449v12l403 317l6 -6l-252 -317l252 -320l-6 -6z" />
    <glyph glyph-name="registered" unicode="&#xae;" horiz-adv-x="1441" 
d="M721 -29q-139 0 -261 52.5t-213 143.5t-143.5 213t-52.5 261t52.5 261t143.5 213t213 144.5t261 53.5t261 -53.5t213 -144.5t143.5 -213t52.5 -261t-52.5 -261t-143.5 -213t-213 -143.5t-261 -52.5zM721 -10q135 0 253 51t206 140t139 207t51 253t-51 254t-139 208
t-206 140t-253 51t-253 -51t-206 -140t-139 -208t-51 -254t51 -253t139 -207t206 -140t253 -51zM496 299v694q0 11 -70 17l-49 4l-4 12h315q145 0 221 -51t76 -135t-54 -135.5t-136 -67.5l178 -272q31 -51 62.5 -69t88.5 -26l4 -12h-202l-234 379q-62 10 -98 22v-366
q0 -13 72 -19l47 -4l4 -12h-346l4 12l61 6q18 2 39 9.5t21 13.5zM881 831.5q0 86.5 -57.5 135.5t-168.5 43l-61 -2v-330q67 -23 106 -23q84 0 132.5 45t48.5 131.5z" />
    <glyph glyph-name="macron" unicode="&#xaf;" horiz-adv-x="755" 
d="M127 1118h516l-14 -51h-516z" />
    <glyph glyph-name="degree" unicode="&#xb0;" horiz-adv-x="581" 
d="M107.5 867.5q-70.5 74.5 -70.5 183.5t69.5 185.5t184 76.5t184.5 -76.5t70 -185.5t-69.5 -183.5t-183.5 -74.5t-184.5 74.5zM290.5 813q106.5 0 170 68.5t63.5 169.5q0 159 -90 200t-167 41t-141.5 -70t-64.5 -170q0 -101 61.5 -170t168 -69z" />
    <glyph glyph-name="plusminus" unicode="&#xb1;" horiz-adv-x="645" 
d="M254 49v864q0 12 -15.5 18.5t-86.5 10.5l-62 2l-6 14h479l-6 -14l-70 -2q-49 -2 -72.5 -8t-23.5 -25v-864q0 -12 15.5 -18.5t87.5 -10.5l61 -2l6 -14h-479l6 14l70 2q49 2 72.5 8.5t23.5 24.5z" />
    <glyph glyph-name="acute" unicode="&#xb4;" 
d="M516 1389h162l-377 -383h-8z" />
    <glyph glyph-name="paragraph" unicode="&#xb6;" horiz-adv-x="847" 
d="M528 567q-223 0 -350 93.5t-127 271.5q0 348 477 348h217v-1346h-20v644q-102 -11 -197 -11z" />
    <glyph glyph-name="periodcentered" unicode="&#xb7;" horiz-adv-x="378" 
d="M190.5 336q-47.5 0 -79 31.5t-31.5 73.5t31.5 74t79 32t77 -32t29.5 -74t-29.5 -73.5t-77 -31.5z" />
    <glyph glyph-name="cedilla" unicode="&#xb8;" 
d="M485 -334q0 111 -162 111q-72 0 -135 -23v15l199 227h23l-119 -137q122 21 206.5 -20.5t84.5 -123.5q0 -149 -161 -189t-233 -48l-4 8q135 23 218 65.5t83 114.5z" />
    <glyph glyph-name="ordmasculine" unicode="&#xba;" horiz-adv-x="770" 
d="M126 685q-103 103 -103 253t105 257.5t258 107.5t256 -105t103 -255t-103.5 -255.5t-258 -105.5t-257.5 103zM602 914q0 374 -219 374q-101 0 -159 -99.5t-58 -236.5q0 -356 228 -356q86 0 147 102t61 216z" />
    <glyph glyph-name="guillemotright" unicode="&#xbb;" horiz-adv-x="831" 
d="M31 104l262 351l-262 350l6 6l414 -350v-12l-414 -351zM393 135l252 320l-252 317l6 6l404 -317v-12l-404 -320z" />
    <glyph glyph-name="questiondown" unicode="&#xbf;" horiz-adv-x="612" 
d="M561 43q0 -72 -147 -72t-254 114.5t-107 266.5q0 101 36 143t116 80q139 65 176 91t37 75q0 72 -107 179h17q89 -66 127.5 -139.5t38.5 -106.5q0 -70 -39.5 -107.5t-160.5 -92.5q-122 -54 -169 -86t-47 -71q0 -82 75.5 -145t237.5 -63q83 0 150 20q20 -27 20 -86z
M319.5 1104q-47.5 0 -77 30.5t-29.5 71.5t29.5 73t77 32t78 -32t30.5 -73t-30.5 -71.5t-78 -30.5z" />
    <glyph glyph-name="Agrave" unicode="&#xc0;" horiz-adv-x="1280" 
d="M750 582l-8 22q-17 56 -40 124q-22 67 -48 149t-79 229h-2l-188 -524h365zM545 1196q68 25 104 107h19l372 -1088q40 -122 64 -151q24 -28 47 -36t59 -12l58 -4l6 -12h-537l6 12l66 4q61 4 84 36t0 104l-135 405h-381l-98 -276q-29 -84 -42 -134t-3 -78t46 -39
q38 -11 107 -18l43 -4l6 -12h-444l6 12l33 4q47 6 78 20q58 25 118 175q33 80 84 221l254 707zM313 1731h162l223 -383h-8z" />
    <glyph glyph-name="Aacute" unicode="&#xc1;" horiz-adv-x="1280" 
d="M750 582l-8 22q-17 56 -40 124q-22 67 -48 149t-79 229h-2l-188 -524h365zM545 1196q68 25 104 107h19l372 -1088q40 -122 64 -151q24 -28 47 -36t59 -12l58 -4l6 -12h-537l6 12l66 4q61 4 84 36t0 104l-135 405h-381l-98 -276q-29 -84 -42 -134t-3 -78t46 -39
q38 -11 107 -18l43 -4l6 -12h-444l6 12l33 4q47 6 78 20q58 25 118 175q33 80 84 221l254 707zM791 1731h161l-377 -383h-8z" />
    <glyph glyph-name="Acircumflex" unicode="&#xc2;" horiz-adv-x="1280" 
d="M750 582l-8 22q-17 56 -40 124q-22 67 -48 149t-79 229h-2l-188 -524h365zM545 1196q68 25 104 107h19l372 -1088q40 -122 64 -151q24 -28 47 -36t59 -12l58 -4l6 -12h-537l6 12l66 4q61 4 84 36t0 104l-135 405h-381l-98 -276q-29 -84 -42 -134t-3 -78t46 -39
q38 -11 107 -18l43 -4l6 -12h-444l6 12l33 4q47 6 78 20q58 25 118 175q33 80 84 221l254 707zM657 1708h5l274 -383h-8l-266 229h-5l-266 -229h-8z" />
    <glyph glyph-name="Atilde" unicode="&#xc3;" horiz-adv-x="1280" 
d="M750 582l-8 22q-17 56 -40 124q-22 67 -48 149t-79 229h-2l-188 -524h365zM545 1196q68 25 104 107h19l372 -1088q40 -122 64 -151q24 -28 47 -36t59 -12l58 -4l6 -12h-537l6 12l66 4q61 4 84 36t0 104l-135 405h-381l-98 -276q-29 -84 -42 -134t-3 -78t46 -39
q38 -11 107 -18l43 -4l6 -12h-444l6 12l33 4q47 6 78 20q58 25 118 175q33 80 84 221l254 707zM354 1376q18 201 126 201q77 0 189 -60t154 -60q41 -1 68 19t33 85h10q-20 -201 -126 -201q-52 0 -98 19t-92 42t-88 42q-82 38 -134 2q-26 -17 -31 -89h-11z" />
    <glyph glyph-name="Adieresis" unicode="&#xc4;" horiz-adv-x="1280" 
d="M750 582l-8 22q-17 56 -40 124q-22 67 -48 149t-79 229h-2l-188 -524h365zM545 1196q68 25 104 107h19l372 -1088q40 -122 64 -151q24 -28 47 -36t59 -12l58 -4l6 -12h-537l6 12l66 4q61 4 84 36t0 104l-135 405h-381l-98 -276q-29 -84 -42 -134t-3 -78t46 -39
q38 -11 107 -18l43 -4l6 -12h-444l6 12l33 4q47 6 78 20q58 25 118 175q33 80 84 221l254 707zM479 1384q-49 0 -71 33t-23 53q0 63 52 97q17 10 51 10t59 -32q26 -32 26 -63q-1 -32 -23 -65t-71 -33zM807 1384q-49 0 -72 33t-23 53q2 65 53 97q17 10 51 10t59 -32
q26 -32 26 -63q-1 -32 -23 -65t-71 -33z" />
    <glyph glyph-name="Aring" unicode="&#xc5;" horiz-adv-x="1280" 
d="M750 582l-8 22q-7 23 -19 59.5t-27.5 84t-41.5 129.5t-79 229h-2l-188 -524h365zM459 1447q0 71 48 125t134 54t134 -54t48 -124t-36.5 -120t-104.5 -64l15 -45q15 -45 63.5 -183.5t115.5 -333.5q66 -194 125 -371t75 -214t41 -67t93 -34l58 -4l6 -12h-537l6 12l66 4
q61 4 83.5 36t0.5 104l-133 401h-383l-98 -272q-29 -84 -42.5 -134.5t-3 -78t47 -38.5t106.5 -18l43 -4l6 -12h-444l6 12l33 4q47 6 77.5 19.5t66 65.5t136.5 331l301 830q-74 12 -113.5 63t-39.5 122zM641 1276q76 0 119 49t43 116t-43 117t-119 50t-119 -51t-43 -117
t43 -115t119 -49z" />
    <glyph glyph-name="AE" unicode="&#xc6;" horiz-adv-x="1736" 
d="M774 1217.5q0 11.5 -20.5 24t-122.5 18.5l-80 4l-6 16h1003l39 -365h-10l-12 29q-29 80 -54.5 139.5t-79 119t-200.5 59.5h-254v-582h135q145 8 181 31.5t54.5 54.5t32.5 80l11 28l12 -2l-41 -413l-12 4l-2 24q-8 109 -52 136.5t-198 31.5l-121 4v-628l246 -11
q239 5 317 138t107 202l12 29l12 -2l-84 -387h-981l6 14l103 9q98 7 98 32v502h-397l-142 -240q-96 -172 -96 -217t27.5 -61t85.5 -23l65 -6l6 -10h-471l7 12l79 8q63 9 122 71t167 249l498 850q10 16 10 27.5zM813 582v649h-4l-379 -649h383z" />
    <glyph glyph-name="Ccedilla" unicode="&#xc7;" horiz-adv-x="1374" 
d="M733 -223q-77 0 -139 -23v15l176 200h-4q-316 0 -513.5 186t-197.5 480t200 486t523 192q179 0 350 -90l111 53l16 -377h-12l-170 311q-99 80 -313 80q-114 0 -214 -50t-205 -180t-105 -418t151.5 -469t384.5 -181h16l5 4h22l-4 -2q218 11 302.5 122t123.5 179l51 86h12
l-73 -311l-70 -15q-88 -46 -199.5 -64t-164.5 -20l-97 -112q122 21 206.5 -20.5t84.5 -123.5q0 -149 -160.5 -189t-232.5 -48l-4 8q135 23 218 65.5t83 114.5q0 111 -158 111z" />
    <glyph glyph-name="Egrave" unicode="&#xc8;" horiz-adv-x="1181" 
d="M227 1233q0 10 -19 16t-99 13l-56 6l-6 12h946l39 -365h-10l-12 29q-61 167 -131 242q-71 74 -224 76h-264v-582h166q145 8 181 31q36 22 55 54q18 32 32 81l11 28l12 -2l-41 -413l-12 2l-2 26q-8 106 -52 135q-45 29 -198 33l-152 4v-630l297 -9q168 4 264 102
q72 73 140 238l12 29l12 -2l-84 -387h-987l6 12l74 8q105 8 102 33v1180zM291 1731h162l223 -383h-8z" />
    <glyph glyph-name="Eacute" unicode="&#xc9;" horiz-adv-x="1181" 
d="M227 1233q0 10 -19 16t-99 13l-56 6l-6 12h946l39 -365h-10l-12 29q-61 167 -131 242q-71 74 -224 76h-264v-582h166q145 8 181 31q36 22 55 54q18 32 32 81l11 28l12 -2l-41 -413l-12 2l-2 26q-8 106 -52 135q-45 29 -198 33l-152 4v-630l297 -9q168 4 264 102
q72 73 140 238l12 29l12 -2l-84 -387h-987l6 12l74 8q105 8 102 33v1180zM762 1731h162l-377 -383h-8z" />
    <glyph glyph-name="Ecircumflex" unicode="&#xca;" horiz-adv-x="1181" 
d="M227 1233q0 10 -19 16t-99 13l-56 6l-6 12h946l39 -365h-10l-12 29q-61 167 -131 242q-71 74 -224 76h-264v-582h166q145 8 181 31q36 22 55 54q18 32 32 81l11 28l12 -2l-41 -413l-12 2l-2 26q-8 106 -52 135q-45 29 -198 33l-152 4v-630l297 -9q168 4 264 102
q72 73 140 238l12 29l12 -2l-84 -387h-987l6 12l74 8q105 8 102 33v1180zM586 1708h4l274 -383h-8l-266 229h-4l-267 -229h-8z" />
    <glyph glyph-name="Edieresis" unicode="&#xcb;" horiz-adv-x="1181" 
d="M227 1233q0 10 -19 16t-99 13l-56 6l-6 12h946l39 -365h-10l-12 29q-61 167 -131 242q-71 74 -224 76h-264v-582h166q145 8 181 31q36 22 55 54q18 32 32 81l11 28l12 -2l-41 -413l-12 2l-2 26q-8 106 -52 135q-45 29 -198 33l-152 4v-630l297 -9q168 4 264 102
q72 73 140 238l12 29l12 -2l-84 -387h-987l6 12l74 8q105 8 102 33v1180zM414 1384q-49 0 -72 33t-23 53q0 64 53 97q18 10 52 10t59 -32t25 -64q0 -31 -22 -64t-72 -33zM741 1384q-49 0 -71 33t-23 53q0 63 52 97q17 10 51 10t58 -31q25 -31 27 -63q1 -33 -22 -66t-72 -33z
" />
    <glyph glyph-name="Igrave" unicode="&#xcc;" horiz-adv-x="659" 
d="M248 53v1180q0 10 -20 16t-99 13l-59 6l-7 12h535l-6 -12l-82 -8q-101 -8 -98 -33v-1180q0 -10 19 -16t99 -13l60 -6l6 -12h-535l7 12l82 8q98 7 98 33zM29 1731h161l224 -383h-8z" />
    <glyph glyph-name="Iacute" unicode="&#xcd;" horiz-adv-x="659" 
d="M248 53v1180q0 10 -20 16t-99 13l-59 6l-7 12h535l-6 -12l-82 -8q-101 -8 -98 -33v-1180q0 -10 19 -16t99 -13l60 -6l6 -12h-535l7 12l82 8q98 7 98 33zM465 1731h162l-377 -383h-8z" />
    <glyph glyph-name="Icircumflex" unicode="&#xce;" horiz-adv-x="659" 
d="M248 53v1180q0 10 -20 16t-99 13l-59 6l-7 12h535l-6 -12l-82 -8q-101 -8 -98 -33v-1180q0 -10 19 -16t99 -13l60 -6l6 -12h-535l7 12l82 8q98 7 98 33zM330 1708h4l274 -383h-8l-266 229h-4l-267 -229h-8z" />
    <glyph glyph-name="Idieresis" unicode="&#xcf;" horiz-adv-x="659" 
d="M248 53v1180q0 10 -20 16t-99 13l-59 6l-7 12h535l-6 -12l-82 -8q-101 -8 -98 -33v-1180q0 -10 19 -16t99 -13l60 -6l6 -12h-535l7 12l82 8q98 7 98 33zM170 1384q-49 0 -72 33q-22 33 -22 53q2 65 52 97q17 10 51 10t59 -32q26 -32 26 -63q0 -32 -22 -65t-72 -33z
M498 1384q-49 0 -72 33t-23 53q0 64 53 97q18 10 52 10t59 -32t25 -64q0 -31 -22 -64t-72 -33z" />
    <glyph glyph-name="Eth" unicode="&#xd0;" horiz-adv-x="1363" 
d="M227 655v578q0 18 -118 29l-66 6l-6 12l518 6q345 4 536 -164.5t191 -459.5t-210 -476.5t-576 -185.5h-461l6 12l88 8q98 7 98 33v578h-176l6 24h170zM391 631v-572l154 -36q270 4 415.5 178t145.5 437q0 264 -148 444t-434 180h-133v-607h316l6 -24h-322z" />
    <glyph glyph-name="Ntilde" unicode="&#xd1;" horiz-adv-x="1400" 
d="M264 1147h-2l2 -1063q0 -52 170 -68l39 -4l6 -12h-430l6 12l41 4q146 13 146 72l4 1077q-23 25 -66 57t-125 44l-26 4l-6 12h344l804 -1026h3l-3 942q0 46 -170 66l-38 4l-7 12h430l-6 -12l-41 -4q-145 -13 -145 -70l-4 -1204h-14zM453 1376q19 201 126 201q76 0 188 -60
t154 -60q43 -1 69 19t32 85h10q-20 -201 -126 -201q-52 0 -98 19t-92 42t-87 42q-83 39 -134 2q-26 -17 -32 -89h-10z" />
    <glyph glyph-name="Ograve" unicode="&#xd2;" horiz-adv-x="1464" 
d="M724 -29q-140 0 -263 49q-250 100 -355 347q-51 123 -51 263t56 261q115 253 364 364q123 55 263 55t264 -48t214 -138q192 -190 193 -485q0 -133 -55 -254q-54 -121 -148 -213t-218 -146t-264 -55zM739 -6q113 0 203 45q187 94 253 333q34 120 34 266t-38 265
q-77 241 -263 339q-92 48 -203 48q-222 0 -356 -177q-135 -177 -133 -478q0 -141 36 -260q74 -237 262 -334q92 -47 205 -47zM408 1731h161l224 -383h-9z" />
    <glyph glyph-name="Oacute" unicode="&#xd3;" horiz-adv-x="1464" 
d="M724 -29q-140 0 -263 49q-250 100 -355 347q-51 123 -51 263t56 261q115 253 364 364q123 55 263 55t264 -48t214 -138q192 -190 193 -485q0 -133 -55 -254q-54 -121 -148 -213t-218 -146t-264 -55zM739 -6q113 0 203 45q187 94 253 333q34 120 34 266t-38 265
q-77 241 -263 339q-92 48 -203 48q-222 0 -356 -177q-135 -177 -133 -478q0 -141 36 -260q74 -237 262 -334q92 -47 205 -47zM895 1731h162l-377 -383h-8z" />
    <glyph glyph-name="Ocircumflex" unicode="&#xd4;" horiz-adv-x="1464" 
d="M724 -29q-140 0 -263 49q-250 100 -355 347q-51 123 -51 263t56 261q115 253 364 364q123 55 263 55t264 -48t214 -138q192 -190 193 -485q0 -133 -55 -254q-54 -121 -148 -213t-218 -146t-264 -55zM739 -6q113 0 203 45q187 94 253 333q34 120 34 266t-38 265
q-77 241 -263 339q-92 48 -203 48q-222 0 -356 -177q-135 -177 -133 -478q0 -141 36 -260q74 -237 262 -334q92 -47 205 -47zM735 1708h4l275 -383h-8l-267 229h-4l-266 -229h-8z" />
    <glyph glyph-name="Otilde" unicode="&#xd5;" horiz-adv-x="1464" 
d="M724 -29q-140 0 -263 49q-250 100 -355 347q-51 123 -51 263t56 261q115 253 364 364q123 55 263 55t264 -48t214 -138q192 -190 193 -485q0 -133 -55 -254q-54 -121 -148 -213t-218 -146t-264 -55zM739 -6q113 0 203 45q187 94 253 333q34 120 34 266t-38 265
q-77 241 -263 339q-92 48 -203 48q-222 0 -356 -177q-135 -177 -133 -478q0 -141 36 -260q74 -237 262 -334q92 -47 205 -47zM449 1376q19 201 125 201q77 0 189 -60t154 -60q43 -1 69 19t32 85h10q-20 -201 -126 -201q-52 0 -98 19t-92 42t-87 42q-83 38 -135 2
q-26 -17 -31 -89h-10z" />
    <glyph glyph-name="Odieresis" unicode="&#xd6;" horiz-adv-x="1464" 
d="M724 -29q-140 0 -263 49q-250 100 -355 347q-51 123 -51 263t56 261q115 253 364 364q123 55 263 55t264 -48t214 -138q192 -190 193 -485q0 -133 -55 -254q-54 -121 -148 -213t-218 -146t-264 -55zM739 -6q113 0 203 45q187 94 253 333q34 120 34 266t-38 265
q-77 241 -263 339q-92 48 -203 48q-222 0 -356 -177q-135 -177 -133 -478q0 -141 36 -260q74 -237 262 -334q92 -47 205 -47zM573 1384q-49 0 -71 33t-23 53q0 63 52 97q17 10 51 10t60 -32t26 -64q0 -31 -23 -64t-72 -33zM901 1384q-49 0 -72 33t-23 53q2 65 53 97
q17 10 51 10t59 -32q26 -32 26 -63q-1 -32 -23 -65t-71 -33z" />
    <glyph glyph-name="Oslash" unicode="&#xd8;" horiz-adv-x="1464" 
d="M1409 639q0 -133 -55.5 -254t-148.5 -213t-217 -146.5t-280 -54.5t-302 72q-3 -5 -111 -193h-23q52 82 100 172l17 29q-154 84 -244 235.5t-90 350.5q0 133 55.5 254t148.5 215t216 149.5t283 55.5t311 -80l105 180h22l-111 -190q150 -86 237 -236.5t87 -345.5zM1229 648
q0 156 -48 286.5t-134 216.5l-26 -45q-26 -45 -69 -118t-97 -167t-111.5 -192.5t-111.5 -192.5t-97 -168.5t-69 -120.5l-26 -45q127 -109 297 -108q226 0 359 173.5t133 480.5zM727 1288q-223 0 -357 -176.5t-134 -494.5t190 -500l606 1048q-127 123 -305 123z" />
    <glyph glyph-name="Ugrave" unicode="&#xd9;" horiz-adv-x="1363" 
d="M780 39q383 0 383 471l-2 688q0 46 -184 68l-39 4l-6 12h440l-6 -12l-41 -4q-141 -13 -141 -72l-2 -690q-2 -254 -112 -394t-363 -139q-254 0 -372 109t-118 360v793q0 10 -19 17t-100 14l-80 6l-6 12h576l-6 -12l-103 -8q-53 -4 -76 -14t-22 -21v-760q0 -223 96 -325
t303 -103zM428 1731h162l223 -383h-8z" />
    <glyph glyph-name="Uacute" unicode="&#xda;" horiz-adv-x="1363" 
d="M780 39q383 0 383 471l-2 688q0 46 -184 68l-39 4l-6 12h440l-6 -12l-41 -4q-141 -13 -141 -72l-2 -690q-2 -254 -112 -394t-363 -139q-254 0 -372 109t-118 360v793q0 10 -19 17t-100 14l-80 6l-6 12h576l-6 -12l-103 -8q-53 -4 -76 -14t-22 -21v-760q0 -223 96 -325
t303 -103zM864 1731h162l-377 -383h-8z" />
    <glyph glyph-name="Ucircumflex" unicode="&#xdb;" horiz-adv-x="1363" 
d="M780 39q383 0 383 471l-2 688q0 46 -184 68l-39 4l-6 12h440l-6 -12l-41 -4q-141 -13 -141 -72l-2 -690q-2 -254 -112 -394t-363 -139q-254 0 -372 109t-118 360v793q0 10 -19 17t-100 14l-80 6l-6 12h576l-6 -12l-103 -8q-53 -4 -76 -14t-22 -21v-760q0 -223 96 -325
t303 -103zM725 1708h4l275 -383h-9l-266 229h-4l-266 -229h-8z" />
    <glyph glyph-name="Udieresis" unicode="&#xdc;" horiz-adv-x="1363" 
d="M780 39q383 0 383 471l-2 688q0 46 -184 68l-39 4l-6 12h440l-6 -12l-41 -4q-141 -13 -141 -72l-2 -690q-2 -254 -112 -394t-363 -139q-254 0 -372 109t-118 360v793q0 10 -19 17t-100 14l-80 6l-6 12h576l-6 -12l-103 -8q-53 -4 -76 -14t-22 -21v-760q0 -223 96 -325
t303 -103zM592 1384q-49 0 -72 33q-22 33 -22 53q2 65 52 97q17 10 51 10t59 -32q26 -32 26 -63q0 -32 -22 -65t-72 -33zM920 1384q-49 0 -72 33t-23 53q0 64 53 97q18 10 52 10t59 -32t25 -64q0 -31 -22 -64t-72 -33z" />
    <glyph glyph-name="Yacute" unicode="&#xdd;" horiz-adv-x="1249" 
d="M543 53v522l-303 535q-53 94 -86 121t-99 33l-57 4l-6 12h540l-6 -12l-61 -2q-82 -4 -89 -34t38 -112l278 -493h4l193 364q81 158 76 198q-4 40 -36 54t-91 21l-52 4l-6 12h451l-6 -12l-45 -4q-79 -4 -116 -39q-63 -58 -146 -226l-211 -395v-557q0 -10 19 -16t99 -13
l80 -6l6 -12h-575l6 12l102 8q99 7 99 33zM842 1731h162l-377 -383h-9z" />
    <glyph glyph-name="Thorn" unicode="&#xde;" horiz-adv-x="1103" 
d="M600 322q-78 0 -209 16v-291q0 -22 119 -29l100 -6l6 -12h-596l7 12l102 8q98 7 98 33v1180q0 10 -19.5 16t-98.5 13l-80 6l-6 12h575l-6 -12l-103 -8q-98 -7 -98 -33v-221h123q37 0 78 -2q233 0 348 -85t115 -237t-99.5 -228.5t-188.5 -104t-167 -27.5zM569 346
q147 0 229.5 85t82.5 233q0 326 -344 319l-146 -2v-610q83 -25 178 -25z" />
    <glyph glyph-name="germandbls" unicode="&#xdf;" horiz-adv-x="1009" 
d="M858 1104q0 -192 -254 -262q139 -71 252 -215.5t113 -289.5t-91 -251t-229 -106t-174.5 60t-36.5 100t29 71t73 31t64.5 -29t17 -61.5t-29 -58t-72.5 -19.5q10 -29 45 -53.5t107 -24.5t121 62.5t49 172.5q0 154 -97.5 308.5t-293.5 271.5v6q131 23 200.5 89.5t69.5 181.5
t-56 183t-153 68q-199 0 -199 -342v-995h-272l6 12l37 2q47 4 66.5 7.5t19.5 21.5v746l-150 2l29 71h119l4 51q18 211 119 328t249 117t233 -69.5t85 -186.5z" />
    <glyph glyph-name="agrave" unicode="&#xe0;" horiz-adv-x="813" 
d="M640 -20q-42 0 -78 38t-40 105v2q-59 -55 -125 -99q-65 -44 -147 -44t-138 56t-56 120t21 107q68 136 460 231l2 90q7 139 -50 201q-57 61 -148 61q-90 0 -156 -53q-15 -13 -15 -21t8 -16t26 -33t17 -55q1 -31 -23 -56q-24 -24 -64 -24t-64 22t-25 59q0 38 39 78
q39 41 98 73q129 71 259 72t190 -62q59 -63 51 -236l-20 -442q-7 -90 69 -92q37 0 90 55l10 -6q-14 -16 -40 -51t-68 -58q-41 -22 -83 -22zM340 66q100 0 184 84l13 325q-289 -72 -325 -185q-11 -36 -11 -90t40 -94t99 -40zM104 1389h162l223 -383h-8z" />
    <glyph glyph-name="aacute" unicode="&#xe1;" horiz-adv-x="813" 
d="M640 -20q-42 0 -78 38t-40 105v2q-59 -55 -125 -99q-65 -44 -147 -44t-138 56t-56 120t21 107q68 136 460 231l2 90q7 139 -50 201q-57 61 -148 61q-90 0 -156 -53q-15 -13 -15 -21t8 -16t26 -33t17 -55q1 -31 -23 -56q-24 -24 -64 -24t-64 22t-25 59q0 38 39 78
q39 41 98 73q129 71 259 72t190 -62q59 -63 51 -236l-20 -442q-7 -90 69 -92q37 0 90 55l10 -6q-14 -16 -40 -51t-68 -58q-41 -22 -83 -22zM340 66q100 0 184 84l13 325q-289 -72 -325 -185q-11 -36 -11 -90t40 -94t99 -40zM561 1389h162l-377 -383h-8z" />
    <glyph glyph-name="acircumflex" unicode="&#xe2;" horiz-adv-x="813" 
d="M640 -20q-42 0 -78 38t-40 105v2q-59 -55 -125 -99q-65 -44 -147 -44t-138 56t-56 120t21 107q68 136 460 231l2 90q7 139 -50 201q-57 61 -148 61q-90 0 -156 -53q-15 -13 -15 -21t8 -16t26 -33t17 -55q1 -31 -23 -56q-24 -24 -64 -24t-64 22t-25 59q0 38 39 78
q39 41 98 73q129 71 259 72t190 -62q59 -63 51 -236l-20 -442q-7 -90 69 -92q37 0 90 55l10 -6q-14 -16 -40 -51t-68 -58q-41 -22 -83 -22zM340 66q100 0 184 84l13 325q-289 -72 -325 -185q-11 -36 -11 -90t40 -94t99 -40zM391 1366h4l275 -383h-8l-267 229h-4l-266 -229
h-8z" />
    <glyph glyph-name="atilde" unicode="&#xe3;" horiz-adv-x="813" 
d="M640 -20q-42 0 -78 38t-40 105v2q-59 -55 -125 -99q-65 -44 -147 -44t-138 56t-56 120t21 107q68 136 460 231l2 90q7 139 -50 201q-57 61 -148 61q-90 0 -156 -53q-15 -13 -15 -21t8 -16t26 -33t17 -55q1 -31 -23 -56q-24 -24 -64 -24t-64 22t-25 59q0 38 39 78
q39 41 98 73q129 71 259 72t190 -62q59 -63 51 -236l-20 -442q-7 -90 69 -92q37 0 90 55l10 -6q-14 -16 -40 -51t-68 -58q-41 -22 -83 -22zM340 66q100 0 184 84l13 325q-289 -72 -325 -185q-11 -36 -11 -90t40 -94t99 -40zM127 1034q19 201 126 201q77 0 188 -60
q112 -60 154 -60q42 -1 69 19t32 85h11q-19 -201 -127 -201q-52 0 -98 19t-92 42t-87 42q-83 39 -134 2q-26 -17 -32 -89h-10z" />
    <glyph glyph-name="adieresis" unicode="&#xe4;" horiz-adv-x="813" 
d="M640 -20q-42 0 -78 38t-40 105v2q-59 -55 -125 -99q-65 -44 -147 -44t-138 56t-56 120t21 107q68 136 460 231l2 90q7 139 -50 201q-57 61 -148 61q-90 0 -156 -53q-15 -13 -15 -21t8 -16t26 -33t17 -55q1 -31 -23 -56q-24 -24 -64 -24t-64 22t-25 59q0 38 39 78
q39 41 98 73q129 71 259 72t190 -62q59 -63 51 -236l-20 -442q-7 -90 69 -92q37 0 90 55l10 -6q-14 -16 -40 -51t-68 -58q-41 -22 -83 -22zM340 66q100 0 184 84l13 325q-289 -72 -325 -185q-11 -36 -11 -90t40 -94t99 -40zM219 1042q-49 0 -72 33t-23 53q2 65 53 97
q17 10 51 10t59 -32q26 -32 26 -63q-1 -32 -23 -65t-71 -33zM547 1042q-49 0 -72 33t-23 53q2 65 53 97q17 10 51 10t60 -32q25 -32 25 -64q-1 -31 -23 -64t-71 -33z" />
    <glyph glyph-name="aring" unicode="&#xe5;" horiz-adv-x="813" 
d="M640 -20q-42 0 -78 38t-40 105v2q-59 -55 -125 -99q-65 -44 -147 -44t-138 56t-56 120t21 107q68 136 460 231l2 90q7 139 -50 201q-57 61 -148 61q-90 0 -156 -53q-15 -13 -15 -21t8 -16t26 -33t17 -55q1 -31 -23 -56q-24 -24 -64 -24t-64 22t-25 59q0 38 39 78
q39 41 98 73q129 71 259 72t190 -62q59 -63 51 -236l-20 -442q-7 -90 69 -92q37 0 90 55l10 -6q-14 -16 -40 -51t-68 -58q-41 -22 -83 -22zM340 66q100 0 184 84l13 325q-289 -72 -325 -185q-11 -36 -11 -90t40 -94t99 -40zM416 1020q-86 0 -134 54t-48 129t48 130t134 55
t134 -54q48 -56 48 -131t-48 -129t-134 -54zM416 1038q76 0 119 49t43 116t-43 117t-119 50t-119 -50t-43 -117t43 -116t119 -49z" />
    <glyph glyph-name="ae" unicode="&#xe6;" horiz-adv-x="1339" 
d="M684 470q0 -172 91 -283t229 -111q94 0 162.5 35.5t123.5 128.5l17 -7q-72 -121 -159 -190.5t-209 -69.5t-214 61.5t-139 153.5q-92 -96 -165 -155.5t-159 -59.5t-146.5 58t-60.5 122t45.5 159t434.5 184l6 90q7 137 -51 199.5t-148 62.5t-131 -33t-41 -41t8 -16
t25.5 -33t17.5 -55q0 -31 -23.5 -55.5t-63.5 -24.5t-64.5 21.5t-24.5 59.5q0 73 134 148.5t243 75.5q110 0 160.5 -30.5t72.5 -104.5q118 135 308 135q150 0 236.5 -80.5t86.5 -200.5q0 -8 -4 -28q-164 2 -293 2h-299q-6 -35 -6 -118zM530 420v20q0 21 2 33
q-282 -70 -306.5 -146.5t-24.5 -130.5t42 -96.5t103 -42.5t111.5 39t115.5 113q-43 97 -43 211zM948 874q-84 0 -156 -79t-98 -189l430 6q0 179 -65.5 220.5t-110.5 41.5z" />
    <glyph glyph-name="ccedilla" unicode="&#xe7;" horiz-adv-x="825" 
d="M578 -334q0 111 -164 111q-73 0 -133 -23v15l178 204h-15q-171 0 -288 127.5t-117 320.5t127.5 333.5t327.5 140.5q126 0 210 -52t84 -136q0 -41 -28.5 -70t-66.5 -29t-63.5 25.5t-25.5 67.5t20.5 62.5t20.5 32.5q0 26 -48.5 54.5t-104.5 28.5q-55 0 -110.5 -30
t-121 -114.5t-65.5 -259.5t92 -287t229 -112q94 0 156.5 35.5t120.5 128.5l16 -7q-61 -111 -138 -179t-188 -79l-100 -116q122 21 206.5 -20.5t84.5 -123.5q0 -150 -161 -189.5t-232 -47.5l-5 8q135 23 218.5 65.5t83.5 114.5z" />
    <glyph glyph-name="egrave" unicode="&#xe8;" horiz-adv-x="845" 
d="M815 233q-149 -260 -349 -260q-106 0 -180 34q-152 69 -216 235q-31 80 -31 175t31 182q65 184 224 258q79 38 167 38q159 0 250 -82q84 -80 84 -199q0 -8 -4 -28l-588 2q-8 -46 -8 -124q0 -170 93 -280t228 -108q94 0 160 36t125 128zM635 610q0 181 -97 243
q-34 21 -79 21q-83 -1 -155 -78q-73 -78 -97 -190zM154 1389h161l224 -383h-9z" />
    <glyph glyph-name="eacute" unicode="&#xe9;" horiz-adv-x="845" 
d="M815 233q-149 -260 -349 -260q-106 0 -180 34q-152 69 -216 235q-31 80 -31 175t31 182q65 184 224 258q79 38 167 38q159 0 250 -82q84 -80 84 -199q0 -8 -4 -28l-588 2q-8 -46 -8 -124q0 -170 93 -280t228 -108q94 0 160 36t125 128zM635 610q0 181 -97 243
q-34 21 -79 21q-83 -1 -155 -78q-73 -78 -97 -190zM600 1389h162l-377 -383h-8z" />
    <glyph glyph-name="ecircumflex" unicode="&#xea;" horiz-adv-x="845" 
d="M815 233q-149 -260 -349 -260q-106 0 -180 34q-152 69 -216 235q-31 80 -31 175t31 182q65 184 224 258q79 38 167 38q159 0 250 -82q84 -80 84 -199q0 -8 -4 -28l-588 2q-8 -46 -8 -124q0 -170 93 -280t228 -108q94 0 160 36t125 128zM635 610q0 181 -97 243
q-34 21 -79 21q-83 -1 -155 -78q-73 -78 -97 -190zM455 1366h4l274 -383h-8l-266 229h-4l-267 -229h-8z" />
    <glyph glyph-name="edieresis" unicode="&#xeb;" horiz-adv-x="845" 
d="M815 233q-149 -260 -349 -260q-106 0 -180 34q-152 69 -216 235q-31 80 -31 175t31 182q65 184 224 258q79 38 167 38q159 0 250 -82q84 -80 84 -199q0 -8 -4 -28l-588 2q-8 -46 -8 -124q0 -170 93 -280t228 -108q94 0 160 36t125 128zM635 610q0 181 -97 243
q-34 21 -79 21q-83 -1 -155 -78q-73 -78 -97 -190zM279 1042q-49 0 -72 33t-23 53q0 64 53 97q17 10 51 10t60 -32q25 -32 25 -64q-1 -31 -23 -64t-71 -33zM606 1042q-50 0 -72 33t-22 53q0 63 52 97q17 10 51 10t59 -32q26 -32 26 -63q0 -32 -22 -65t-72 -33z" />
    <glyph glyph-name="igrave" unicode="&#xec;" horiz-adv-x="446" 
d="M156 641q0 97 -16 124q-16 26 -68 36l-47 8l2 8l272 72v-848q0 -12 17 -17t85 -10l29 -2l6 -12h-409l6 12l37 2q47 4 66 8t20 23v596zM-76 1389h162l223 -383h-8z" />
    <glyph glyph-name="iacute" unicode="&#xed;" horiz-adv-x="446" 
d="M156 641q0 97 -16 124q-16 26 -68 36l-47 8l2 8l272 72v-848q0 -12 17 -17t85 -10l29 -2l6 -12h-409l6 12l37 2q47 4 66 8t20 23v596zM371 1389h161l-376 -383h-9z" />
    <glyph glyph-name="icircumflex" unicode="&#xee;" horiz-adv-x="446" 
d="M156 45v596q0 97 -16.5 124.5t-67.5 35.5l-47 8l2 8l272 72v-848q0 -12 17.5 -17.5t84.5 -9.5l29 -2l6 -12h-409l6 12l37 2q47 4 66.5 8.5t19.5 22.5zM231 1366h5l241 -383h-10l-231 227h-5l-235 -227h-8z" />
    <glyph glyph-name="idieresis" unicode="&#xef;" horiz-adv-x="446" 
d="M156 641q0 97 -16 124q-16 26 -68 36l-47 8l2 8l272 72v-848q0 -12 17 -17t85 -10l29 -2l6 -12h-409l6 12l37 2q47 4 66 8t20 23v596zM70 1042q-49 0 -72 33t-23 53q0 64 53 97q18 10 52 10t59 -32t25 -64q0 -31 -22 -64t-72 -33zM397 1042q-49 0 -71 33t-23 53
q0 63 52 97q17 10 51 10t58 -31q25 -31 27 -63q1 -33 -22 -66t-72 -33z" />
    <glyph glyph-name="eth" unicode="&#xf0;" horiz-adv-x="978" 
d="M479 1161q218 -110 335.5 -296.5t117.5 -390.5t-127 -352.5t-319 -148.5t-319.5 129.5t-127.5 327t129 330.5t317 133q98 0 172 -25q-95 178 -247 271l-40 -14q-42 -13 -98 -31t-131 -41l4 24l238 78q-121 74 -291 100l2 15q197 -18 352 -94l246 81l4 -24zM483 -10
q127 0 203 110.5t76 320.5t-76 333t-199 123t-200.5 -115t-77.5 -323q0 -209 73.5 -329t200.5 -120z" />
    <glyph glyph-name="ntilde" unicode="&#xf1;" horiz-adv-x="1005" 
d="M299 41q0 -12 17 -17t85 -10l29 -2l6 -12h-409l6 12l37 2q47 4 66 8t20 23v594q0 97 -12 119t-29 30q-16 8 -43 13l-47 8l2 8l274 72l-6 -176l6 -4q103 89 148 117q105 65 200 66q96 2 157 -60t60 -195v-594q0 -11 14 -15t89 -14l28 -2l7 -12h-408l6 12l37 2q84 6 84 31
v565q0 180 -180 181q-130 0 -244 -107v-643zM223 1034q19 201 126 201q75 0 188 -60t155 -60q41 -1 68 19t33 85h10q-19 -201 -125 -201q-52 0 -99 19t-93 42t-87 42q-82 38 -134 2q-26 -17 -32 -89h-10z" />
    <glyph glyph-name="ograve" unicode="&#xf2;" horiz-adv-x="993" 
d="M170 104q-131 131 -131 325t132 330t327 136q194 0 326 -132t131 -328t-133 -329t-326 -133q-195 0 -326 131zM782 420q0 269 -112 383q-81 76 -161 76q-81 0 -134 -35q-166 -110 -166 -410q0 -104 29 -208q28 -104 94 -170t178 -66t192 126t80 304zM152 1389h161
l224 -383h-9z" />
    <glyph glyph-name="oacute" unicode="&#xf3;" horiz-adv-x="993" 
d="M170 104q-131 131 -131 325t132 330t327 136q194 0 326 -132t131 -328t-133 -329t-326 -133q-195 0 -326 131zM782 420q0 269 -112 383q-81 76 -161 76q-81 0 -134 -35q-166 -110 -166 -410q0 -104 29 -208q28 -104 94 -170t178 -66t192 126t80 304zM670 1389h161
l-376 -383h-9z" />
    <glyph glyph-name="ocircumflex" unicode="&#xf4;" horiz-adv-x="993" 
d="M170 104q-131 131 -131 325t132 330t327 136q194 0 326 -132t131 -328t-133 -329t-326 -133q-195 0 -326 131zM782 420q0 269 -112 383q-81 76 -161 76q-81 0 -134 -35q-166 -110 -166 -410q0 -104 29 -208q28 -104 94 -170t178 -66t192 126t80 304zM494 1366h4l274 -383
h-8l-266 229h-4l-267 -229h-8z" />
    <glyph glyph-name="otilde" unicode="&#xf5;" horiz-adv-x="993" 
d="M170 104q-131 131 -131 325t132 330t327 136q194 0 326 -132t131 -328t-133 -329t-326 -133q-195 0 -326 131zM782 420q0 269 -112 383q-81 76 -161 76q-81 0 -134 -35q-166 -110 -166 -410q0 -104 29 -208q28 -104 94 -170t178 -66t192 126t80 304zM207 1034
q19 201 126 201q76 0 188 -60t154 -60q43 -1 69 19t32 85h10q-20 -201 -126 -201q-52 0 -98 19t-92 42t-87 42q-83 39 -134 2q-26 -17 -32 -89h-10z" />
    <glyph glyph-name="odieresis" unicode="&#xf6;" horiz-adv-x="993" 
d="M170 104q-131 131 -131 325t132 330t327 136q194 0 326 -132t131 -328t-133 -329t-326 -133q-195 0 -326 131zM782 420q0 269 -112 383q-81 76 -161 76q-81 0 -134 -35q-166 -110 -166 -410q0 -104 29 -208q28 -104 94 -170t178 -66t192 126t80 304zM332 1042
q-49 0 -72 33q-22 33 -22 53q2 65 52 97q18 10 52 10t59 -32t25 -64q0 -31 -22 -64t-72 -33zM659 1042q-49 0 -71 33t-23 53q0 63 52 97q17 10 51 10t60 -32t26 -64q0 -31 -23 -64t-72 -33z" />
    <glyph glyph-name="divide" unicode="&#xf7;" horiz-adv-x="1114" 
d="M203 845q142 148 355 148t354 -147t141 -363t-141.5 -359.5t-355.5 -143.5t-354.5 142.5t-140.5 358.5t142 364zM1032 486q0 206 -137.5 347.5t-336.5 141.5t-337.5 -142.5t-138.5 -350.5t136 -346t338 -138q203 0 339.5 141t136.5 347z" />
    <glyph glyph-name="oslash" unicode="&#xf8;" horiz-adv-x="993" 
d="M482 -27q-112 0 -218 60l-170 -295h-22l176 305q-96 59 -152.5 161t-56.5 212q0 209 132 344t327 135q117 0 215 -51l196 338h23l-203 -348q104 -59 164.5 -162.5t60.5 -217.5t-34.5 -199t-96 -147.5t-145.5 -98.5t-196 -36zM670 803q-81 76 -192 76
q-112 0 -190.5 -124.5t-78.5 -324.5q0 -201 78 -321l395 679q-4 6 -12 15zM782 420q0 238 -88 352l-16 -29q-16 -29 -70.5 -122t-124.5 -216q-71 -123 -184 -313q77 -103 202 -103q125 1 203 128.5t78 302.5z" />
    <glyph glyph-name="ugrave" unicode="&#xf9;" horiz-adv-x="954" 
d="M457 76q126 0 233 98v574q0 63 -19 81t-83 23l-29 2l-6 12h283v-739q0 -35 9 -48t42 -18l80 -12l-2 -10l-273 -72l4 187h-2q-133 -124 -237 -162q-49 -18 -105 -19q-100 0 -160 61t-61 195v596q0 12 -18 18t-86 9l-29 2l-6 12h282v-610q0 -180 183 -180zM201 1389h161
l224 -383h-8z" />
    <glyph glyph-name="uacute" unicode="&#xfa;" horiz-adv-x="954" 
d="M457 76q126 0 233 98v574q0 63 -19 81t-83 23l-29 2l-6 12h283v-739q0 -35 9 -48t42 -18l80 -12l-2 -10l-273 -72l4 187h-2q-133 -124 -237 -162q-49 -18 -105 -19q-100 0 -160 61t-61 195v596q0 12 -18 18t-86 9l-29 2l-6 12h282v-610q0 -180 183 -180zM637 1389h162
l-377 -383h-8z" />
    <glyph glyph-name="ucircumflex" unicode="&#xfb;" horiz-adv-x="954" 
d="M457 76q126 0 233 98v574q0 63 -19 81t-83 23l-29 2l-6 12h283v-739q0 -35 9 -48t42 -18l80 -12l-2 -10l-273 -72l4 187h-2q-133 -124 -237 -162q-49 -18 -105 -19q-100 0 -160 61t-61 195v596q0 12 -18 18t-86 9l-29 2l-6 12h282v-610q0 -180 183 -180zM475 1366h4
l275 -383h-9l-266 229h-4l-266 -229h-8z" />
    <glyph glyph-name="udieresis" unicode="&#xfc;" horiz-adv-x="954" 
d="M457 76q126 0 233 98v574q0 63 -19 81t-83 23l-29 2l-6 12h283v-739q0 -35 9 -48t42 -18l80 -12l-2 -10l-273 -72l4 187h-2q-133 -124 -237 -162q-49 -18 -105 -19q-100 0 -160 61t-61 195v596q0 12 -18 18t-86 9l-29 2l-6 12h282v-610q0 -180 183 -180zM322 1042
q-49 0 -72 33t-23 53q0 64 53 97q18 10 52 10t59 -32t25 -64q0 -31 -22 -64t-72 -33zM649 1042q-49 0 -71 33t-23 53q0 63 52 97q17 10 51 10t59 -32q26 -32 26 -63q-1 -32 -23 -65t-71 -33z" />
    <glyph glyph-name="yacute" unicode="&#xfd;" horiz-adv-x="917" 
d="M612 1319h154l-356 -365h-9zM164 -524q-49 0 -83 26.5t-34 65.5t26.5 66.5t68.5 27.5t69 -28.5t35 -69.5q55 10 88 71.5t74 182.5l55 168l-2 2l-314 735q-33 85 -51 104t-65 23l-39 2l-6 12h415l-4 -12l-35 -2q-59 -4 -68 -26.5t13 -80.5l232 -555l159 435
q50 144 38.5 174t-40 39.5t-80.5 13.5l-28 2l-6 12h346l-6 -12l-27 -2q-35 -2 -56.5 -11.5t-40 -36t-37 -75.5t-48.5 -129l-228 -606l-67 -211q-47 -154 -104.5 -229.5t-149.5 -75.5z" />
    <glyph glyph-name="thorn" unicode="&#xfe;" horiz-adv-x="962" 
d="M240 702q161 181 309 181q167 0 271 -119t104 -321t-138.5 -336t-332.5 -134q-102 0 -213 54h-4v-506q0 -22 104 -25l70 -2l6 -12h-451l6 12l37 2q47 4 66.5 8t19.5 23v1651q0 59 -15.5 82.5t-68.5 31.5l-47 8l2 11l271 67v-671zM507 -2q52 0 153.5 64t101.5 344
q0 163 -79.5 275t-209.5 112q-76 0 -133 -36t-104 -85v-494q59 -120 139 -150t132 -30z" />
    <glyph glyph-name="ydieresis" unicode="&#xff;" horiz-adv-x="917" 
d="M164 -524q-49 0 -83 26t-34 66q0 38 27 66q26 28 68 28t69 -29t35 -69q55 10 88 71t74 183l55 168l-2 2l-314 735q-33 85 -52 104q-18 19 -64 23l-39 2l-6 12h415l-4 -12l-35 -2q-59 -4 -68 -27t13 -80l232 -555l159 435q50 144 38 174q-11 31 -40 40t-80 13l-28 2l-6 12
h346l-6 -12l-27 -2q-35 -2 -57 -11q-39 -17 -66 -89q-28 -72 -59 -152l-228 -606l-67 -211q-46 -153 -104 -229t-150 -76zM313 1042q-49 0 -71 33t-23 53q0 63 52 97q17 10 51 10t58 -31q25 -31 27 -63q1 -33 -22 -66t-72 -33zM641 1042q-49 0 -72 33t-23 53q2 65 53 97
q17 10 51 10t59 -32q26 -32 26 -63q-1 -32 -23 -65t-71 -33z" />
    <glyph glyph-name="dotlessi" unicode="&#x131;" horiz-adv-x="446" 
d="M156 45v596q0 97 -16.5 124.5t-67.5 35.5l-47 8l2 8l272 72v-848q0 -12 17.5 -17.5t84.5 -9.5l29 -2l6 -12h-409l6 12l37 2q47 4 66.5 8.5t19.5 22.5z" />
    <glyph glyph-name="Lslash" unicode="&#x141;" horiz-adv-x="1118" 
d="M227 1233q0 10 -19.5 16t-98.5 13l-66 6l-6 12h581l-6 -12l-123 -8q-98 -7 -98 -33v-565l207 67l4 -24l-211 -68v-608l242 -11q228 0 295 137.5t100 215.5l12 26h15l-80 -397h-940l6 12l88 8q98 7 98 33v531l-204 -68v25l204 67v625z" />
    <glyph glyph-name="lslash" unicode="&#x142;" horiz-adv-x="428" 
d="M145 1133q0 92 -12 115.5t-28.5 31.5t-43.5 12l-45 8l2 11l271 67v-774l133 45l4 -22l-137 -45v-541q0 -12 16.5 -17.5t85.5 -9.5l29 -2l6 -12h-406l5 12l34 2q47 4 66.5 8.5t19.5 22.5v490l-143 -46l4 23l139 45v576z" />
    <glyph glyph-name="OE" unicode="&#x152;" horiz-adv-x="1880" 
d="M264.5 1095.5q209.5 182.5 579.5 182.5l848 2l39 -365h-11l-12 29q-62 172 -137 245t-228 73h-233v-582h135q145 8 184 30.5t59.5 54.5t35.5 81l10 28l12 -2l-41 -413l-12 2l-2 26q-8 106 -56.5 135t-203.5 33l-121 4v-628l266 -11q240 5 312.5 138t101.5 202l12 29
l13 -2l-84 -387h-947q-346 -4 -537.5 165t-191.5 458q0 290 209.5 472.5zM378.5 204.5q147.5 -179.5 436.5 -179.5l131 2v1200l-151 28q-273 -4 -418.5 -175.5t-145.5 -433.5t147.5 -441.5z" />
    <glyph glyph-name="oe" unicode="&#x153;" horiz-adv-x="1591" 
d="M1188 -27q-202 0 -324 199q-59 -92 -153.5 -145.5t-202.5 -53.5t-192.5 35t-145.5 96.5t-96 144.5t-35 227.5t131.5 281.5t327.5 137q123 0 219 -54.5t151 -148.5q53 92 142.5 147.5t187.5 55.5q169 0 255.5 -80.5t86.5 -200.5q0 -8 -4 -28q-164 2 -291 2h-297
q-8 -46 -8 -124q0 -168 92.5 -278t229.5 -110q94 0 160.5 35.5t125.5 128.5l15 -7q-70 -121 -160 -190.5t-215 -69.5zM209 451q0 -267 122 -395q63 -66 174 -66q58 0 110.5 34.5t109.5 126t57 269.5q0 263 -110 379q-80 80 -178 80q-128 0 -206.5 -124.5t-78.5 -303.5z
M1204 874q-86 0 -155.5 -76t-96.5 -192l428 6q0 179 -65.5 220.5t-110.5 41.5z" />
    <glyph glyph-name="Scaron" unicode="&#x160;" horiz-adv-x="991" 
d="M532 1309q102 0 238 -47l82 24l18 -313h-12l-135 246q-94 71 -206 71t-187 -68q-74 -68 -74 -173q0 -156 179 -236q54 -25 125 -49q72 -24 140 -58q228 -112 228 -333q0 -164 -130 -283t-307 -119t-395 72l-20 291h12l43 -101q53 -129 140 -185t216 -56t216 84
q88 84 88 213t-84 201t-239 124q-155 51 -234 120q-101 92 -101 231q0 138 104 238q110 106 295 106zM244 1749h8l266 -229h4l266 229h9l-275 -383h-4z" />
    <glyph glyph-name="scaron" unicode="&#x161;" horiz-adv-x="710" 
d="M638 145q-81 -172 -341 -172q-107 0 -229 47l-23 242l12 2l43 -92q86 -180 249 -180q83 0 137 51t54 132t-58 130q-60 49 -165 83t-152 74q-90 79 -89 183t82 175t193 72q111 1 192 -36l65 23l10 -228l-12 -2l-104 168q-73 57 -149 57q-77 0 -121 -43t-44 -98
q0 -91 51 -130t129 -67t126 -48q168 -71 168 -236q0 -55 -24 -107zM80 1348h8l266 -230h4l267 230h8l-275 -383h-4z" />
    <glyph glyph-name="Ydieresis" unicode="&#x178;" horiz-adv-x="1249" 
d="M543 53v522l-303 535q-53 94 -86 121t-99 33l-57 4l-6 12h540l-6 -12l-61 -2q-82 -4 -89 -34t38 -112l278 -493h4l193 364q81 158 76 198q-4 40 -36 54t-91 21l-52 4l-6 12h451l-6 -12l-45 -4q-79 -4 -116 -39q-63 -58 -146 -226l-211 -395v-557q0 -10 19 -16t99 -13
l80 -6l6 -12h-575l6 12l102 8q99 7 99 33zM469 1384q-49 0 -72 33t-23 53q2 65 53 97q17 10 51 10t59 -32q26 -32 26 -63q-1 -32 -23 -65t-71 -33zM797 1384q-49 0 -72 33t-23 53q0 64 53 97q17 10 51 10t60 -32q25 -32 25 -64q-1 -31 -23 -64t-71 -33z" />
    <glyph glyph-name="Zcaron" unicode="&#x17d;" horiz-adv-x="1165" 
d="M881 1262h-336q-248 0 -357 -195q-33 -59 -59 -131l-10 -25h-13l44 369h927v-8l-811 -1245v-4l365 -5q197 0 299 100q81 79 147 269l13 29h16l-66 -416h-972v6l813 1249v7zM315 1718h9l266 -229h4l266 229h8l-274 -383h-4z" />
    <glyph glyph-name="zcaron" unicode="&#x17e;" horiz-adv-x="837" 
d="M516 848h-98q-133 0 -192 -53q-58 -53 -109 -185l-19 -41h-10l6 295h668v-10l-555 -834l190 -4q183 0 289 138q33 43 64 96l28 47h8l-67 -297h-680v10l551 836q-39 2 -74 2zM137 1348h8l267 -230h4l266 230h8l-274 -383h-4z" />
    <glyph glyph-name="florin" unicode="&#x192;" horiz-adv-x="987" 
d="M882 1292q-78 0 -123.5 -104t-96.5 -363l251 -2l-10 -65h-256l-59 -258q-95 -419 -244 -568q-74 -77 -197 -77q-74 0 -115.5 31.5t-41.5 73.5t25.5 68.5t57.5 26.5q60 0 83.5 -50.5t-23.5 -106.5q48 -19 72 -19q25 0 81.5 43.5t162.5 581.5l49 254l-219 4l24 61l215 4
q100 386 223 435t191 49t115 -33t47 -79t-30 -71.5t-61 -25.5q-63 0 -81 54.5t43 107.5q-47 28 -83 28z" />
    <glyph glyph-name="circumflex" unicode="&#x2c6;" 
d="M377 1366h4l274 -383h-8l-266 229h-4l-266 -229h-9z" />
    <glyph glyph-name="caron" unicode="&#x2c7;" 
d="M102 1366h9l266 -229h4l266 229h8l-274 -383h-4z" />
    <glyph glyph-name="breve" unicode="&#x2d8;" 
d="M383 1094q154 0 242 235h10q-38 -160 -72.5 -217t-75.5 -87t-105 -30q-110 0 -161.5 88t-89.5 246h10q43 -111 99.5 -173t142.5 -62z" />
    <glyph glyph-name="dotaccent" unicode="&#x2d9;" 
d="M379 1075q-49 0 -71.5 32.5t-22.5 60.5t22.5 63t71.5 35t71.5 -35t22.5 -63t-22.5 -60.5t-71.5 -32.5z" />
    <glyph glyph-name="ring" unicode="&#x2da;" 
d="M379 1020q-86 0 -134 54t-48 129t48 130.5t134 55.5t134 -55.5t48 -130.5t-48 -129t-134 -54zM379 1038q76 0 119 50t43 116t-43 116t-119 50t-119 -50t-43 -117t43 -116t119 -49z" />
    <glyph glyph-name="ogonek" unicode="&#x2db;" 
d="M365 -465q-77 0 -130 51t-53 117q0 110 95 193.5t217 136.5h28q-239 -116 -239 -285q0 -70 39.5 -109.5t106.5 -39.5t134 73l8 -6q-92 -131 -206 -131z" />
    <glyph glyph-name="tilde" unicode="&#x2dc;" 
d="M90 1034q19 201 126 201q72 0 189.5 -60.5t155.5 -60.5q39 0 65.5 19.5t32.5 85.5h11q-18 -201 -126 -201q-52 0 -98.5 19.5t-92.5 42t-86.5 42t-74.5 19.5t-60 -17.5t-32 -89.5h-10z" />
    <glyph glyph-name="hungarumlaut" unicode="&#x2dd;" 
d="M362 1389h150l-352 -383h-15zM653 1389h150l-350 -383h-15z" />
    <glyph glyph-name="pi" unicode="&#x3c0;" horiz-adv-x="1441" 
d="M721 -29q-139 0 -261 52.5t-213 143.5t-143.5 213t-52.5 261t52.5 261t143.5 213t213 144.5t261 53.5t261 -53.5t213 -144.5t143.5 -213t52.5 -261t-52.5 -261t-143.5 -213t-213 -143.5t-261 -52.5zM721 -10q135 0 253 51t206 140t139 207t51 253t-51 254t-139 208
t-206 140t-253 51t-253 -51t-206 -140t-139 -208t-51 -254t51 -253t139 -207t206 -140t253 -51zM767 604q-60 0 -108 10v-335q0 -13 70 -19l62 -4l4 -12h-359l2 12l62 6q59 6 59 21v694q0 8 -11 11t-61 7l-47 4l-4 13h342q141 0 210 -52.5t69 -142.5t-84 -151.5t-206 -61.5z
M766 618q92 0 140 49.5t48 140.5t-47 140t-162 49h-86v-364q68 -15 107 -15z" />
    <glyph glyph-name="endash" unicode="&#x2013;" horiz-adv-x="870" 
d="M14 520h848l-6 -61h-848z" />
    <glyph glyph-name="emdash" unicode="&#x2014;" horiz-adv-x="1835" 
d="M14 520h1813l-6 -61h-1813z" />
    <glyph glyph-name="quoteleft" unicode="&#x2018;" horiz-adv-x="342" 
d="M139 1100q0 -71 51.5 -94.5t106.5 -16.5q13 -35 -16.5 -73.5t-88.5 -38.5q-60 0 -103.5 42t-43.5 102q0 101 69.5 182.5t176.5 121.5l8 -8q-160 -95 -160 -217z" />
    <glyph glyph-name="quoteright" unicode="&#x2019;" horiz-adv-x="339" 
d="M201 1096q0 72 -53.5 95t-104.5 17q-16 63 29 89t75 26q63 0 105.5 -45.5t42.5 -105.5q0 -99 -67 -177.5t-179 -122.5l-8 11q160 88 160 213z" />
    <glyph glyph-name="quotesinglbase" unicode="&#x201a;" horiz-adv-x="339" 
d="M201 -26q0 99 -53.5 123t-104.5 18q-9 38 20.5 76t87.5 38q59 0 101.5 -45t42.5 -127t-69.5 -160.5t-176.5 -119.5l-8 10q160 88 160 187z" />
    <glyph glyph-name="quotedblleft" unicode="&#x201c;" horiz-adv-x="659" 
d="M457 1100q0 -71 51.5 -94.5t105.5 -16.5q13 -35 -15.5 -73.5t-89.5 -38.5q-60 0 -103.5 42t-43.5 102q0 101 71 183t175 121l8 -8q-159 -94 -159 -217zM139 1100q0 -71 51.5 -94.5t106.5 -16.5q13 -35 -16.5 -73.5t-88.5 -38.5q-60 0 -103.5 42t-43.5 102
q0 101 69.5 182.5t176.5 121.5l8 -8q-160 -95 -160 -217z" />
    <glyph glyph-name="quotedblright" unicode="&#x201d;" horiz-adv-x="657" 
d="M201 1096q0 72 -53.5 95t-104.5 17q-16 63 29 89t75 26q63 0 105.5 -45.5t42.5 -105.5q0 -99 -67 -177.5t-179 -122.5l-8 11q160 88 160 213zM518 1096q0 71 -52 94.5t-104 17.5q-13 35 17.5 75t89.5 40t101 -45.5t42 -105.5q0 -99 -67.5 -177.5t-177.5 -122.5l-9 11
q160 88 160 213z" />
    <glyph glyph-name="quotedblbase" unicode="&#x201e;" horiz-adv-x="657" 
d="M201 -26q0 99 -53.5 123t-104.5 18q-9 38 20.5 76t87.5 38q59 0 101.5 -45t42.5 -127t-69.5 -160.5t-176.5 -119.5l-8 10q160 88 160 187zM518 -26q0 99 -51.5 123t-104.5 18q-13 34 17 74t89 40q60 0 102 -45t42 -127t-69.5 -160.5t-175.5 -119.5l-9 10q160 88 160 187z
" />
    <glyph glyph-name="dagger" unicode="&#x2020;" horiz-adv-x="886" 
d="M432 848h-414l-2 20h416v412h23v-412h415l-2 -20h-413v-1167h-23v1167z" />
    <glyph glyph-name="daggerdbl" unicode="&#x2021;" horiz-adv-x="886" 
d="M432 74h-416l2 20h414v770h-414l-2 21h416v395h23v-395h415l-2 -21h-413v-770h413l2 -20h-415v-393h-23v393z" />
    <glyph glyph-name="bullet" unicode="&#x2022;" horiz-adv-x="870" 
d="M436 80q-22 0 -63 12t-84 29.5t-80 38t-51.5 37t-35 53.5t-38.5 80t-30.5 83t-12.5 72.5t42.5 134.5t66.5 126q39 39 141 80.5t135 41.5q54 0 157.5 -42t131.5 -72q29 -25 59.5 -100.5t42.5 -115.5t12 -73t-41.5 -135t-71.5 -134t-103.5 -62t-114 -42t-62.5 -12z" />
    <glyph glyph-name="ellipsis" unicode="&#x2026;" horiz-adv-x="1134" 
d="M956.5 -25q-47.5 0 -78 32t-30.5 74t30.5 73.5t78 31.5t77 -31.5t29.5 -73.5t-29.5 -74t-77 -32zM180 -25q-47 0 -78.5 32t-31.5 74t31.5 73.5t78.5 31.5t77 -31.5t30 -73.5t-30 -74t-77 -32zM569 -25q-47 0 -78.5 32t-31.5 74t31.5 73.5t78.5 31.5t77 -31.5t30 -73.5
t-30 -74t-77 -32z" />
    <glyph glyph-name="perthousand" unicode="&#x2030;" horiz-adv-x="1673" 
d="M965 1311h24l-876 -1340h-25zM1147 232q0 108 69.5 185t185 77t185.5 -77t70 -185t-69.5 -183.5t-186.5 -75.5t-185.5 75.5t-68.5 183.5zM1400.5 -8q106.5 0 169 68.5t62.5 169.5t-63 173t-166.5 72t-167.5 -71.5t-64 -172.5q0 -102 61.5 -170.5t168 -68.5zM557 232
q0 108 69.5 185t185.5 77t185.5 -77t69.5 -185t-68.5 -183.5t-186.5 -75.5t-186.5 75.5t-68.5 183.5zM811.5 -8q106.5 0 168.5 68.5t62 170.5t-63.5 173t-166.5 71t-166.5 -71t-63.5 -173t61.5 -170.5t168 -68.5zM85 866.5q-69 75.5 -69 183.5t70 184.5t185.5 76.5
t185 -75.5t69.5 -185.5q0 -109 -68.5 -184t-186 -75t-186.5 75.5zM270.5 809q106.5 0 169 69.5t62.5 169.5t-63 172t-167.5 72t-167.5 -71.5t-63 -171.5t61.5 -170t168 -70z" />
    <glyph glyph-name="guilsinglleft" unicode="&#x2039;" horiz-adv-x="477" 
d="M23 449v12l413 350l6 -6l-262 -350l262 -351l-6 -6z" />
    <glyph glyph-name="guilsinglright" unicode="&#x203a;" horiz-adv-x="477" 
d="M35 104l262 351l-260 350l6 6l412 -350v-12l-414 -351z" />
    <glyph glyph-name="fraction" unicode="&#x2044;" horiz-adv-x="940" 
d="M936 1313h29l-961 -1340h-29z" />
    <glyph glyph-name="Euro" unicode="&#x20ac;" horiz-adv-x="978" 
d="M655 70q197 0 303 188l15 -10q-68 -121 -158 -199t-223 -78q-171 0 -302 133t-163 353h-129l6 20h119q-6 68 -6 128t8 118h-127l6 20h125q39 247 192.5 402t348.5 155q125 0 200.5 -46t75.5 -121q0 -39 -28.5 -66t-66.5 -27t-59.5 19.5t-32 67.5t33.5 81q-12 23 -45 47.5
t-99 24.5t-131 -41t-144.5 -153.5t-101.5 -342.5h408l6 -20h-416l-2 -80q0 -80 13 -166h399l6 -20h-399q31 -172 132.5 -279.5t235.5 -107.5z" />
    <glyph glyph-name="trademark" unicode="&#x2122;" horiz-adv-x="827" 
d="M168 975v299h-25q-35 -2 -50 -20t-48 -68h-4l16 94h287l10 -94h-2q-23 46 -43 67t-53 21h-25v-301q0 -4 2.5 -3.5t42.5 -4.5v-7h-157l2 7l22 2q25 2 25 8zM395 965q25 0 32 6t7 30l6 252q-11 16 -49 21l-2 6h111l88 -238h2l90 238h115l-2 -6l-25 -2q-23 -2 -23 -8l7 -291
q0 -4 2.5 -3.5t40.5 -4.5l2 -7h-156v7l25 2q20 2 20 8l-4 280h-2l-115 -297h-6l-110 285l-3 2l-4 -248q0 -23 9.5 -27.5t37.5 -4.5h11l2 -7h-119l2 7h10z" />
    <glyph glyph-name="Omega" unicode="&#x2126;" horiz-adv-x="1085" 
d="M170 45v746l-150 2l29 71h119l4 31q27 224 143 333t273 109q82 0 122 -30.5t40 -69.5t-24 -64.5t-56 -25.5q-55 0 -89 43t-26 98l-61 21q-104 -29 -142.5 -122t-38.5 -247v-76h377l2 49q19 217 130 330t249 113q63 0 94 -28t31 -62t-25.5 -58t-63.5 -24t-74 33.5
t-44 93.5l-28 4q-78 -35 -102.5 -125t-24.5 -232v-94h225l-29 -73h-196v-750q0 -12 14 -18.5t82 -8.5l67 -2l7 -12h-441l6 12l37 2q47 4 65.5 8.5t18.5 22.5v748h-377v-752q0 -15 17 -21t78 -6l65 -2l6 -12h-438l6 12l37 2q47 4 66.5 8.5t19.5 22.5z" />
    <glyph glyph-name="Delta" unicode="&#x2206;" horiz-adv-x="909" 
d="M524 303v932q0 23 -118 29l-80 6l-7 12h576l-6 -12l-103 -8q-98 -7 -98 -33v-973q0 -37 -29.5 -85t-117 -121t-227.5 -73t-206.5 51.5t-66.5 105.5t28.5 86t74.5 32t73 -29.5t27 -64.5q0 -78 -88 -95q48 -67 161 -67t160 68.5t47 238.5z" />
    <glyph glyph-name="radical" unicode="&#x221a;" horiz-adv-x="1505" 
d="M1212 1161h-8q-57 0 -91 43t-28 103l-65 20q-104 -29 -145 -122t-41 -247v-94h378v297zM1354 41q0 -12 17.5 -17.5t86.5 -9.5l29 -2l6 -12h-408l7 12l34 2q47 4 66.5 8.5t19.5 22.5v748h-378v-752q0 -12 13 -18.5t81 -8.5l67 -2l4 -12h-436l6 12l37 2q47 4 65.5 8.5
t18.5 22.5v748h-377v-752q0 -15 17 -21t78 -6l65 -2l6 -12h-438l6 12l37 2q47 4 66.5 8.5t19.5 22.5v746l-150 2l29 71h119l4 31q27 224 143 333t273 109q82 0 122 -30.5t40 -69.5t-24 -64.5t-68 -25.5t-77.5 43t-25.5 98l-61 21q-104 -29 -142.5 -122t-38.5 -247v-76h377
l2 51q19 217 140.5 330t283.5 113q76 0 123 -29l115 49v-1337z" />
    <glyph glyph-name="approxequal" unicode="&#x2248;" horiz-adv-x="1505" 
d="M170 45v746l-150 2l29 71h119l4 31q27 224 143 333t273 109q82 0 122 -30.5t40 -69.5t-24 -64.5t-56 -25.5q-56 0 -89.5 44.5t-25.5 96.5l-61 21q-104 -29 -142.5 -122t-38.5 -247v-76h377l2 51q19 218 142 330.5t284 112.5q78 0 123 -33t45 -77t-25.5 -68.5t-71.5 -24.5
t-80 46t-26 108l-61 18q-104 -29 -146 -122t-42 -247v-94h376l144 23v-846q0 -12 17.5 -17.5t86.5 -9.5l29 -2l6 -12h-408l7 12l36 2q47 4 65.5 9.5t18.5 23.5v746h-378v-752q0 -12 13 -18.5t81 -8.5l67 -2l4 -12h-436l6 12l37 2q47 4 65.5 8.5t18.5 22.5v748h-377v-752
q0 -15 17 -21t78 -6l65 -2l6 -12h-438l6 12l37 2q47 4 66.5 8.5t19.5 22.5z" />
    <glyph glyph-name="apple" unicode="&#xf8ff;" horiz-adv-x="1552" 
d="M602 236l-383 -140l139 383l-370 176l370 170l-139 387l383 -141l176 371l170 -371l387 141l-141 -387l369 -168l-369 -174l141 -387l-387 142l-174 -371zM905 346l393 -213l-211 395l422 129l-422 125l211 394l-393 -211l-127 424l-131 -424l-391 211l211 -394
l-426 -127l426 -131l-211 -391l391 213l127 -426z" />
    <glyph glyph-name="fi" unicode="&#xfb01;" horiz-adv-x="989" 
d="M170 45v746l-150 2l29 71h119l4 51q19 217 140.5 330t283.5 113q78 0 123 -33t45 -77t-24.5 -68.5t-70.5 -24.5t-80 46t-26 108l-63 18q-104 -29 -145.5 -122t-41.5 -247v-94h377l144 23v-846q0 -12 17 -17.5t87 -9.5l29 -2l4 -12h-408l6 12l37 2q47 4 65.5 8.5
t18.5 22.5v748h-377v-752q0 -15 17 -21t78 -6l65 -2l6 -12h-438l6 12l37 2q47 4 66.5 8.5t19.5 22.5z" />
    <glyph glyph-name="fl" unicode="&#xfb02;" horiz-adv-x="983" 
d="M674 1161q-55 0 -91 43t-28 103l-57 20q-104 -29 -144.5 -122t-40.5 -247v-94h377v299q-6 -2 -16 -2zM834 41q0 -12 17 -17.5t87 -9.5l29 -2l4 -12h-408l6 12l35 2q47 4 66.5 8.5t19.5 22.5v748h-377v-752q0 -15 17 -21t78 -6l65 -2l6 -12h-438l6 12l37 2q47 4 66.5 8.5
t19.5 22.5v746l-150 2l29 71h119l4 51q19 217 140.5 330t281.5 113q80 0 119 -31q1 0 121 51v-1337z" />
    </font>
</defs>
</svg>
